<svg id="kity_svg_6" xmlns="http://www.w3.org/2000/svg" xmlns:xlink="http://www.w3.org/1999/xlink" version="1.1" width="1713" height="1188" style="background: rgb(251, 251, 251); visibility: visible;" viewBox="0 0 1713 1188"><defs id="kity_defs_7"><linearGradient id="kity_linearGradient_17" x1="0" y1="0" x2="0" y2="1"><stop id="kity_stop_18" offset="0" stop-color="rgb(255, 255, 255)"></stop><stop id="kity_stop_19" offset="1" stop-color="rgb(204, 204, 204)"></stop></linearGradient><marker id="kity_marker_2" orient="auto" refX="6" refY="0" viewBox="-7 -7 14 14" markerWidth="7" markerHeight="7" markerUnits="userSpaceOnUse"><path id="kity_path_3" fill="rgb(115, 161, 191)" stroke="none" d="M6,0A6,6,0,1,1,-6,0A6,6,0,1,1,6,0"></path></marker></defs><g id="kity_g_8"><g id="minder1" text-rendering="optimize-speed"><g id="minder_connect_group1"><path id="kity_path_31" fill="none" stroke="rgb(115, 161, 191)" stroke-width="1" d="M723.5,551.5A170,374,0,0,1,893.5,177.5"></path><path id="kity_path_33" fill="none" stroke="rgb(115, 161, 191)" stroke-width="1" d="M1062.5,177.5C1077.5,177.5,1077.5,72.5,1092.5,72.5L1295.5,72.5"></path><path id="kity_path_35" fill="none" stroke="rgb(115, 161, 191)" stroke-width="1" d="M1062.5,177.5C1077.5,177.5,1077.5,134.5,1092.5,134.5L1324.5,134.5"></path><path id="kity_path_37" fill="none" stroke="rgb(115, 161, 191)" stroke-width="1" d="M1062.5,177.5C1077.5,177.5,1077.5,196.5,1092.5,196.5L1396.5,196.5"></path><path id="kity_path_39" fill="none" stroke="rgb(115, 161, 191)" stroke-width="1" d="M1062.5,177.5C1077.5,177.5,1077.5,258.5,1092.5,258.5L1420.5,258.5"></path><path id="kity_path_41" fill="none" stroke="rgb(115, 161, 191)" stroke-width="1" d="M1062.5,177.5C1077.5,177.5,1077.5,320.5,1092.5,320.5L1394.5,320.5"></path><path id="kity_path_43" fill="none" stroke="rgb(115, 161, 191)" stroke-width="1" d="M723.5,551.5A127,422,0,0,0,596.5,129.5"></path><path id="kity_path_45" fill="none" stroke="rgb(115, 161, 191)" stroke-width="1" d="M413.5,129.5C398.5,129.5,398.5,55.5,383.5,55.5L131.5,55.5"></path><path id="kity_path_47" fill="none" stroke="rgb(115, 161, 191)" stroke-width="1" d="M413.5,129.5C398.5,129.5,398.5,117.5,383.5,117.5L207.5,117.5"></path><path id="kity_path_49" fill="none" stroke="rgb(115, 161, 191)" stroke-width="1" d="M413.5,129.5C398.5,129.5,398.5,179.5,383.5,179.5L166.5,179.5"></path><path id="kity_path_51" fill="none" stroke="rgb(115, 161, 191)" stroke-width="1" d="M413.5,129.5C398.5,129.5,398.5,241.5,383.5,241.5L20.5,241.5"></path><path id="kity_path_53" fill="none" stroke="rgb(115, 161, 191)" stroke-width="1" d="M723.5,551.5A171,181,0,0,0,894.5,732.5"></path><path id="kity_path_55" fill="none" stroke="rgb(115, 161, 191)" stroke-width="1" d="M1007.5,732.5C1022.5,732.5,1022.5,457.5,1037.5,457.5L1321.5,457.5"></path><path id="kity_path_57" fill="none" stroke="rgb(115, 161, 191)" stroke-width="1" d="M1007.5,732.5C1022.5,732.5,1022.5,519.5,1037.5,519.5L1378.5,519.5"></path><path id="kity_path_59" fill="none" stroke="rgb(115, 161, 191)" stroke-width="1" d="M1007.5,732.5C1022.5,732.5,1022.5,581.5,1037.5,581.5L1355.5,581.5"></path><path id="kity_path_61" fill="none" stroke="rgb(115, 161, 191)" stroke-width="1" d="M1007.5,732.5C1022.5,732.5,1022.5,643.5,1037.5,643.5L1218.5,643.5"></path><path id="kity_path_63" fill="none" stroke="rgb(115, 161, 191)" stroke-width="1" d="M1007.5,732.5C1022.5,732.5,1022.5,705.5,1037.5,705.5L1303.5,705.5"></path><path id="kity_path_65" fill="none" stroke="rgb(115, 161, 191)" stroke-width="1" d="M1007.5,732.5C1022.5,732.5,1022.5,767.5,1037.5,767.5L1290.5,767.5"></path><path id="kity_path_67" fill="none" stroke="rgb(115, 161, 191)" stroke-width="1" d="M1007.5,732.5C1022.5,732.5,1022.5,829.5,1037.5,829.5L1313.5,829.5"></path><path id="kity_path_69" fill="none" stroke="rgb(115, 161, 191)" stroke-width="1" d="M1007.5,732.5C971,732.5,971,1013.5,934.5,1013.5L1316.5,1013.5"></path><path id="kity_path_71" fill="none" stroke="rgb(115, 161, 191)" stroke-width="1" d="M1316.5,1013.5C1331.5,1013.5,1331.5,858.5,1346.5,858.5L1521.5,858.5"></path><path id="kity_path_73" fill="none" stroke="rgb(115, 161, 191)" stroke-width="1" d="M1316.5,1013.5C1331.5,1013.5,1331.5,920.5,1346.5,920.5L1489.5,920.5"></path><path id="kity_path_75" fill="none" stroke="rgb(115, 161, 191)" stroke-width="1" d="M1316.5,1013.5C1331.5,1013.5,1331.5,982.5,1346.5,982.5L1453.5,982.5"></path><path id="kity_path_77" fill="none" stroke="rgb(115, 161, 191)" stroke-width="1" d="M1316.5,1013.5C1331.5,1013.5,1331.5,1044.5,1346.5,1044.5L1485.5,1044.5"></path><path id="kity_path_79" fill="none" stroke="rgb(115, 161, 191)" stroke-width="1" d="M1316.5,1013.5C1331.5,1013.5,1331.5,1106.5,1346.5,1106.5L1435.5,1106.5"></path><path id="kity_path_81" fill="none" stroke="rgb(115, 161, 191)" stroke-width="1" d="M1316.5,1013.5C1331.5,1013.5,1331.5,1168.5,1346.5,1168.5L1693.5,1168.5"></path><path id="kity_path_83" fill="none" stroke="rgb(115, 161, 191)" stroke-width="1" d="M723.5,551.5A204,83,0,0,0,519.5,468.5"></path><path id="kity_path_85" fill="none" stroke="rgb(115, 161, 191)" stroke-width="1" d="M420.5,468.5C405.5,468.5,405.5,332.5,390.5,332.5L263.5,332.5"></path><path id="kity_path_87" fill="none" stroke="rgb(115, 161, 191)" stroke-width="1" d="M420.5,468.5C405.5,468.5,405.5,394.5,390.5,394.5L246.5,394.5"></path><path id="kity_path_89" fill="none" stroke="rgb(115, 161, 191)" stroke-width="1" d="M420.5,468.5C405.5,468.5,405.5,456.5,390.5,456.5L163.5,456.5"></path><path id="kity_path_91" fill="none" stroke="rgb(115, 161, 191)" stroke-width="1" d="M420.5,468.5C405.5,468.5,405.5,518.5,390.5,518.5L242.5,518.5"></path><path id="kity_path_93" fill="none" stroke="rgb(115, 161, 191)" stroke-width="1" d="M420.5,468.5C405.5,468.5,405.5,580.5,390.5,580.5L258.5,580.5"></path><path id="kity_path_95" fill="none" stroke="rgb(115, 161, 191)" stroke-width="1" d="M420.5,468.5C405.5,468.5,405.5,642.5,390.5,642.5L258.5,642.5"></path><path id="kity_path_97" fill="none" stroke="rgb(115, 161, 191)" stroke-width="1" d="M723.5,551.5A162,349,0,0,1,561.5,900.5"></path><path id="kity_path_99" fill="none" stroke="rgb(115, 161, 191)" stroke-width="1" d="M449.5,900.5C434.5,900.5,434.5,747.5,419.5,747.5L316.5,747.5"></path><path id="kity_path_101" fill="none" stroke="rgb(115, 161, 191)" stroke-width="1" d="M316.5,747.5C301.5,747.5,301.5,717.5,286.5,717.5L139.5,717.5"></path><path id="kity_path_103" fill="none" stroke="rgb(115, 161, 191)" stroke-width="1" d="M316.5,747.5C301.5,747.5,301.5,779.5,286.5,779.5L106.5,779.5"></path><path id="kity_path_105" fill="none" stroke="rgb(115, 161, 191)" stroke-width="1" d="M449.5,900.5C434.5,900.5,434.5,841.5,419.5,841.5L195.5,841.5"></path><path id="kity_path_107" fill="none" stroke="rgb(115, 161, 191)" stroke-width="1" d="M449.5,900.5C434.5,900.5,434.5,903.5,419.5,903.5L251.5,903.5"></path><path id="kity_path_109" fill="none" stroke="rgb(115, 161, 191)" stroke-width="1" d="M449.5,900.5C434.5,900.5,434.5,965.5,419.5,965.5L200.5,965.5"></path><path id="kity_path_111" fill="none" stroke="rgb(115, 161, 191)" stroke-width="1" d="M449.5,900.5C434.5,900.5,434.5,1027.5,419.5,1027.5L210.5,1027.5"></path><path id="kity_path_113" fill="none" stroke="rgb(115, 161, 191)" stroke-width="1" d="M449.5,900.5C434.5,900.5,434.5,1089.5,419.5,1089.5L236.5,1089.5"></path></g><g id="minder_node1"><path id="node_outline1" fill="rgb(115, 161, 191)" stroke="rgb(115, 161, 191)" d="M676.5,531.5h94a5,5,0,0,1,5,5v30a5,5,0,0,1,-5,5h-94a5,5,0,0,1,-5,-5v-30a5,5,0,0,1,5,-5z" stroke-width="3"></path><g id="node_text1" fill="white"><text id="kity_text_22" text-rendering="inherit" font-size="16" dy=".8em" y="543.5" x="695.5">Swoole</text></g></g><g id="kity_g_12"><path id="kity_path_13" fill="none" stroke="none" d="M695.5,551.5h0v0h0z"></path></g><g id="kity_g_14"><path id="kity_path_15" fill="none" stroke="none" d="M695.5,551.5h0v0h0z"></path><path id="kity_path_16" fill="none" stroke="none"></path></g><g id="minder_node2"><g id="node_expander6" style="cursor: pointer;"><path id="kity_path_521" fill="white" stroke="gray" d="M894.5,177.5A6,6,0,1,1,882.5,177.5A6,6,0,1,1,894.5,177.5"></path><path id="kity_path_522" fill="none" stroke="gray" d="M884,177.5L893,177.5"></path></g><path id="node_outline7" fill="rgb(238, 243, 246)" stroke="rgb(115, 161, 191)" d="M898.5,160.5h161a3,3,0,0,1,3,3v28a3,3,0,0,1,-3,3h-161a3,3,0,0,1,-3,-3v-28a3,3,0,0,1,3,-3z" stroke-width="1"></path><g id="node_text7" fill="black"><text id="kity_text_125" text-rendering="inherit" font-size="14" dy=".8em" y="170.5" x="915.5">异步风格服务端</text></g><a id="kity_a_358" xlink:href="https://wiki.swoole.com/#/server/init" target="_blank" xlink:title="https://wiki.swoole.com/#/server/init" style="cursor: pointer;"><path id="kity_path_360" fill="rgba(255, 255, 255, 0)" stroke="none" d="M1022.5,166.5h16a4,4,0,0,1,4,4v14a4,4,0,0,1,-4,4h-16a4,4,0,0,1,-4,-4v-14a4,4,0,0,1,4,-4z"></path><path id="kity_path_359" fill="#666" stroke="none" d="M1037.114,182.724h-1.278c-1.668,0,-3.07,-1.07,-3.599,-2.556h4.877c0.707,0,1.278,-0.571,1.278,-1.278V176.334c0,-0.707,-0.571,-1.278,-1.278,-1.278h-4.877C1032.766,173.571,1034.168,172.5,1035.836,172.5h1.278c2.116,0,3.834,1.716,3.834,3.834V178.89C1040.948,181.008,1039.23,182.724,1037.114,182.724zM1025.612,177.612c0,-0.707,0.573,-1.278,1.278,-1.278h7.668c0.707,0,1.278,0.571,1.278,1.278S1035.265,178.89,1034.558,178.89H1026.89C1026.185,178.89,1025.612,178.319,1025.612,177.612zM1023.056,176.334V178.89c0,0.707,0.573,1.278,1.278,1.278h4.877c-0.528,1.486,-1.932,2.556,-3.599,2.556H1024.334C1022.216,182.724,1020.5,181.008,1020.5,178.89V176.334C1020.5,174.216,1022.216,172.5,1024.334,172.5h1.278c1.667,0,3.071,1.071,3.599,2.556H1024.334C1023.629,175.056,1023.056,175.627,1023.056,176.334z"></path></a></g><g id="minder_node3"><g id="node_expander1" style="cursor: pointer;" display="none"><path id="kity_path_506" fill="white" stroke="gray" d="M1102.5,53.5A6,6,0,1,1,1090.5,53.5A6,6,0,1,1,1102.5,53.5"></path><path id="kity_path_507" fill="none" stroke="gray"></path></g><path id="node_outline2" fill="none" stroke="none" d="M1107.5,37.5h183a5,5,0,0,1,5,5v22a5,5,0,0,1,-5,5h-183a5,5,0,0,1,-5,-5v-22a5,5,0,0,1,5,-5z"></path><g id="node_text2" fill="black"><text id="kity_text_115" text-rendering="inherit" font-size="12" dy=".8em" y="47.5" x="1137.5">Server(TCP/UDP服务)</text></g><g id="node_priority1"><path id="kity_path_200" fill="#840023" stroke="none" d="M1113,57c0,3.866,3.134,7,7,7h6c3.866,0,7,-3.134,7,-7V51H1113V57z"></path><path id="kity_path_201" fill="#FF1200" stroke="none" d="M1133,54c0,3.866,-3.134,7,-7,7H1120c-3.866,0,-7,-3.134,-7,-7V51c0,-3.866,3.134,-7,7,-7h6c3.866,0,7,3.134,7,7V54z" opacity="0.8"></path><text id="kity_text_202" text-rendering="geometricPrecision" x="1122" y="53.5" text-anchor="middle" font-style="italic" font-size="12" fill="white" dy="4">1</text></g><a id="kity_a_343" xlink:href="https://wiki.swoole.com/#/server/init" target="_blank" xlink:title="https://wiki.swoole.com/#/server/init" style="cursor: pointer;"><path id="kity_path_345" fill="rgba(255, 255, 255, 0)" stroke="none" d="M1265.5,42.5h16a4,4,0,0,1,4,4v14a4,4,0,0,1,-4,4h-16a4,4,0,0,1,-4,-4v-14a4,4,0,0,1,4,-4z"></path><path id="kity_path_344" fill="#666" stroke="none" d="M1280.114,58.724000000000004h-1.278c-1.668,0,-3.07,-1.07,-3.599,-2.556h4.877c0.707,0,1.278,-0.571,1.278,-1.278V52.334c0,-0.707,-0.571,-1.278,-1.278,-1.278h-4.877C1275.766,49.571,1277.168,48.5,1278.836,48.5h1.278c2.116,0,3.834,1.716,3.834,3.834V54.89C1283.948,57.007999999999996,1282.23,58.724000000000004,1280.114,58.724000000000004zM1268.612,53.612c0,-0.707,0.573,-1.278,1.278,-1.278h7.668c0.707,0,1.278,0.571,1.278,1.278S1278.265,54.89,1277.558,54.89H1269.89C1269.185,54.89,1268.612,54.319,1268.612,53.612zM1266.056,52.334V54.89c0,0.707,0.573,1.278,1.278,1.278h4.877c-0.528,1.486,-1.932,2.556,-3.599,2.556H1267.334C1265.216,58.724000000000004,1263.5,57.007999999999996,1263.5,54.89V52.334C1263.5,50.216,1265.216,48.5,1267.334,48.5h1.278c1.667,0,3.071,1.071,3.599,2.556H1267.334C1266.629,51.056,1266.056,51.627,1266.056,52.334z"></path></a></g><g id="minder_node4"><g id="node_expander2" style="cursor: pointer;" display="none"><path id="kity_path_509" fill="white" stroke="gray" d="M1102.5,115.5A6,6,0,1,1,1090.5,115.5A6,6,0,1,1,1102.5,115.5"></path><path id="kity_path_510" fill="none" stroke="gray"></path></g><path id="node_outline3" fill="none" stroke="none" d="M1107.5,99.5h212a5,5,0,0,1,5,5v22a5,5,0,0,1,-5,5h-212a5,5,0,0,1,-5,-5v-22a5,5,0,0,1,5,-5z"></path><g id="node_text3" fill="black"><text id="kity_text_117" text-rendering="inherit" font-size="12" dy=".8em" y="109.5" x="1137.5">Http\Server(继承于Server)</text></g><g id="node_priority2"><path id="kity_path_205" fill="#01467F" stroke="none" d="M1113,119c0,3.866,3.134,7,7,7h6c3.866,0,7,-3.134,7,-7V113H1113V119z"></path><path id="kity_path_206" fill="#0074FF" stroke="none" d="M1133,116c0,3.866,-3.134,7,-7,7H1120c-3.866,0,-7,-3.134,-7,-7V113c0,-3.866,3.134,-7,7,-7h6c3.866,0,7,3.134,7,7V116z" opacity="0.8"></path><text id="kity_text_207" text-rendering="geometricPrecision" x="1122" y="115.5" text-anchor="middle" font-style="italic" font-size="12" fill="white" dy="4">2</text></g><a id="kity_a_346" xlink:href="https://wiki.swoole.com/#/http_server" target="_blank" xlink:title="https://wiki.swoole.com/#/http_server" style="cursor: pointer;"><path id="kity_path_348" fill="rgba(255, 255, 255, 0)" stroke="none" d="M1294.5,104.5h16a4,4,0,0,1,4,4v14a4,4,0,0,1,-4,4h-16a4,4,0,0,1,-4,-4v-14a4,4,0,0,1,4,-4z"></path><path id="kity_path_347" fill="#666" stroke="none" d="M1309.114,120.724h-1.278c-1.668,0,-3.07,-1.07,-3.599,-2.556h4.877c0.707,0,1.278,-0.571,1.278,-1.278V114.334c0,-0.707,-0.571,-1.278,-1.278,-1.278h-4.877C1304.766,111.571,1306.168,110.5,1307.836,110.5h1.278c2.116,0,3.834,1.716,3.834,3.834V116.89C1312.948,119.008,1311.23,120.724,1309.114,120.724zM1297.612,115.612c0,-0.707,0.573,-1.278,1.278,-1.278h7.668c0.707,0,1.278,0.571,1.278,1.278S1307.265,116.89,1306.558,116.89H1298.89C1298.185,116.89,1297.612,116.319,1297.612,115.612zM1295.056,114.334V116.89c0,0.707,0.573,1.278,1.278,1.278h4.877c-0.528,1.486,-1.932,2.556,-3.599,2.556H1296.334C1294.216,120.724,1292.5,119.008,1292.5,116.89V114.334C1292.5,112.216,1294.216,110.5,1296.334,110.5h1.278c1.667,0,3.071,1.071,3.599,2.556H1296.334C1295.629,113.056,1295.056,113.627,1295.056,114.334z"></path></a></g><g id="minder_node5"><g id="node_expander3" style="cursor: pointer;" display="none"><path id="kity_path_512" fill="white" stroke="gray" d="M1102.5,177.5A6,6,0,1,1,1090.5,177.5A6,6,0,1,1,1102.5,177.5"></path><path id="kity_path_513" fill="none" stroke="gray"></path></g><path id="node_outline4" fill="none" stroke="none" d="M1107.5,161.5h284a5,5,0,0,1,5,5v22a5,5,0,0,1,-5,5h-284a5,5,0,0,1,-5,-5v-22a5,5,0,0,1,5,-5z"></path><g id="node_text4" fill="black"><text id="kity_text_119" text-rendering="inherit" font-size="12" dy=".8em" y="171.5" x="1137.5">Websocket\Server(继承于Http\Server)</text></g><g id="node_priority3"><path id="kity_path_210" fill="#006300" stroke="none" d="M1113,181c0,3.866,3.134,7,7,7h6c3.866,0,7,-3.134,7,-7V175H1113V181z"></path><path id="kity_path_211" fill="#00AF00" stroke="none" d="M1133,178c0,3.866,-3.134,7,-7,7H1120c-3.866,0,-7,-3.134,-7,-7V175c0,-3.866,3.134,-7,7,-7h6c3.866,0,7,3.134,7,7V178z" opacity="0.8"></path><text id="kity_text_212" text-rendering="geometricPrecision" x="1122" y="177.5" text-anchor="middle" font-style="italic" font-size="12" fill="white" dy="4">3</text></g><a id="kity_a_349" xlink:href="https://wiki.swoole.com/#/websocket_server" target="_blank" xlink:title="https://wiki.swoole.com/#/websocket_server" style="cursor: pointer;"><path id="kity_path_351" fill="rgba(255, 255, 255, 0)" stroke="none" d="M1366.5,166.5h16a4,4,0,0,1,4,4v14a4,4,0,0,1,-4,4h-16a4,4,0,0,1,-4,-4v-14a4,4,0,0,1,4,-4z"></path><path id="kity_path_350" fill="#666" stroke="none" d="M1381.114,182.724h-1.278c-1.668,0,-3.07,-1.07,-3.599,-2.556h4.877c0.707,0,1.278,-0.571,1.278,-1.278V176.334c0,-0.707,-0.571,-1.278,-1.278,-1.278h-4.877C1376.766,173.571,1378.168,172.5,1379.836,172.5h1.278c2.116,0,3.834,1.716,3.834,3.834V178.89C1384.948,181.008,1383.23,182.724,1381.114,182.724zM1369.612,177.612c0,-0.707,0.573,-1.278,1.278,-1.278h7.668c0.707,0,1.278,0.571,1.278,1.278S1379.265,178.89,1378.558,178.89H1370.89C1370.185,178.89,1369.612,178.319,1369.612,177.612zM1367.056,176.334V178.89c0,0.707,0.573,1.278,1.278,1.278h4.877c-0.528,1.486,-1.932,2.556,-3.599,2.556H1368.334C1366.216,182.724,1364.5,181.008,1364.5,178.89V176.334C1364.5,174.216,1366.216,172.5,1368.334,172.5h1.278c1.667,0,3.071,1.071,3.599,2.556H1368.334C1367.629,175.056,1367.056,175.627,1367.056,176.334z"></path></a></g><g id="minder_node6"><g id="node_expander4" style="cursor: pointer;" display="none"><path id="kity_path_515" fill="white" stroke="gray" d="M1102.5,239.5A6,6,0,1,1,1090.5,239.5A6,6,0,1,1,1102.5,239.5"></path><path id="kity_path_516" fill="none" stroke="gray"></path></g><path id="node_outline5" fill="none" stroke="none" d="M1107.5,223.5h308a5,5,0,0,1,5,5v22a5,5,0,0,1,-5,5h-308a5,5,0,0,1,-5,-5v-22a5,5,0,0,1,5,-5z"></path><g id="node_text5" fill="black"><text id="kity_text_121" text-rendering="inherit" font-size="12" dy=".8em" y="233.5" x="1137.5">Redis\Server(Redis协议服务，继承于Server)</text></g><g id="node_priority4"><path id="kity_path_215" fill="#B25000" stroke="none" d="M1113,243c0,3.866,3.134,7,7,7h6c3.866,0,7,-3.134,7,-7V237H1113V243z"></path><path id="kity_path_216" fill="#FF962E" stroke="none" d="M1133,240c0,3.866,-3.134,7,-7,7H1120c-3.866,0,-7,-3.134,-7,-7V237c0,-3.866,3.134,-7,7,-7h6c3.866,0,7,3.134,7,7V240z" opacity="0.8"></path><text id="kity_text_217" text-rendering="geometricPrecision" x="1122" y="239.5" text-anchor="middle" font-style="italic" font-size="12" fill="white" dy="4">4</text></g><a id="kity_a_352" xlink:href="https://wiki.swoole.com/#/redis_server" target="_blank" xlink:title="https://wiki.swoole.com/#/redis_server" style="cursor: pointer;"><path id="kity_path_354" fill="rgba(255, 255, 255, 0)" stroke="none" d="M1390.5,228.5h16a4,4,0,0,1,4,4v14a4,4,0,0,1,-4,4h-16a4,4,0,0,1,-4,-4v-14a4,4,0,0,1,4,-4z"></path><path id="kity_path_353" fill="#666" stroke="none" d="M1405.114,244.724h-1.278c-1.668,0,-3.07,-1.07,-3.599,-2.556h4.877c0.707,0,1.278,-0.571,1.278,-1.278V238.334c0,-0.707,-0.571,-1.278,-1.278,-1.278h-4.877C1400.766,235.571,1402.168,234.5,1403.836,234.5h1.278c2.116,0,3.834,1.716,3.834,3.834V240.89C1408.948,243.008,1407.23,244.724,1405.114,244.724zM1393.612,239.612c0,-0.707,0.573,-1.278,1.278,-1.278h7.668c0.707,0,1.278,0.571,1.278,1.278S1403.265,240.89,1402.558,240.89H1394.89C1394.185,240.89,1393.612,240.319,1393.612,239.612zM1391.056,238.334V240.89c0,0.707,0.573,1.278,1.278,1.278h4.877c-0.528,1.486,-1.932,2.556,-3.599,2.556H1392.334C1390.216,244.724,1388.5,243.008,1388.5,240.89V238.334C1388.5,236.216,1390.216,234.5,1392.334,234.5h1.278c1.667,0,3.071,1.071,3.599,2.556H1392.334C1391.629,237.056,1391.056,237.627,1391.056,238.334z"></path></a></g><g id="minder_node7"><g id="node_expander5" style="cursor: pointer;" display="none"><path id="kity_path_518" fill="white" stroke="gray" d="M1102.5,301.5A6,6,0,1,1,1090.5,301.5A6,6,0,1,1,1102.5,301.5"></path><path id="kity_path_519" fill="none" stroke="gray"></path></g><path id="node_outline6" fill="none" stroke="none" d="M1107.5,285.5h282a5,5,0,0,1,5,5v22a5,5,0,0,1,-5,5h-282a5,5,0,0,1,-5,-5v-22a5,5,0,0,1,5,-5z"></path><g id="node_text6" fill="black"><text id="kity_text_123" text-rendering="inherit" font-size="12" dy=".8em" y="295.5" x="1137.5">Server\Port(多端口监听，继承于Server)</text></g><g id="node_priority5"><path id="kity_path_220" fill="#4720C4" stroke="none" d="M1113,305c0,3.866,3.134,7,7,7h6c3.866,0,7,-3.134,7,-7V299H1113V305z"></path><path id="kity_path_221" fill="#A464FF" stroke="none" d="M1133,302c0,3.866,-3.134,7,-7,7H1120c-3.866,0,-7,-3.134,-7,-7V299c0,-3.866,3.134,-7,7,-7h6c3.866,0,7,3.134,7,7V302z" opacity="0.8"></path><text id="kity_text_222" text-rendering="geometricPrecision" x="1122" y="301.5" text-anchor="middle" font-style="italic" font-size="12" fill="white" dy="4">5</text></g><a id="kity_a_355" xlink:href="https://wiki.swoole.com/#/server/port" target="_blank" xlink:title="https://wiki.swoole.com/#/server/port" style="cursor: pointer;"><path id="kity_path_357" fill="rgba(255, 255, 255, 0)" stroke="none" d="M1364.5,290.5h16a4,4,0,0,1,4,4v14a4,4,0,0,1,-4,4h-16a4,4,0,0,1,-4,-4v-14a4,4,0,0,1,4,-4z"></path><path id="kity_path_356" fill="#666" stroke="none" d="M1379.114,306.724h-1.278c-1.668,0,-3.07,-1.07,-3.599,-2.556h4.877c0.707,0,1.278,-0.571,1.278,-1.278V300.334c0,-0.707,-0.571,-1.278,-1.278,-1.278h-4.877C1374.766,297.571,1376.168,296.5,1377.836,296.5h1.278c2.116,0,3.834,1.716,3.834,3.834V302.89C1382.948,305.008,1381.23,306.724,1379.114,306.724zM1367.612,301.612c0,-0.707,0.573,-1.278,1.278,-1.278h7.668c0.707,0,1.278,0.571,1.278,1.278S1377.265,302.89,1376.558,302.89H1368.89C1368.185,302.89,1367.612,302.319,1367.612,301.612zM1365.056,300.334V302.89c0,0.707,0.573,1.278,1.278,1.278h4.877c-0.528,1.486,-1.932,2.556,-3.599,2.556H1366.334C1364.216,306.724,1362.5,305.008,1362.5,302.89V300.334C1362.5,298.216,1364.216,296.5,1366.334,296.5h1.278c1.667,0,3.071,1.071,3.599,2.556H1366.334C1365.629,299.056,1365.056,299.627,1365.056,300.334z"></path></a></g><g id="minder_node8"><g id="node_expander11" style="cursor: pointer;"><path id="kity_path_536" fill="white" stroke="gray" d="M412.5,129.5A6,6,0,1,1,400.5,129.5A6,6,0,1,1,412.5,129.5"></path><path id="kity_path_537" fill="none" stroke="gray" d="M402,129.5L411,129.5"></path></g><path id="node_outline12" fill="rgb(238, 243, 246)" stroke="rgb(115, 161, 191)" d="M416.5,112.5h175a3,3,0,0,1,3,3v28a3,3,0,0,1,-3,3h-175a3,3,0,0,1,-3,-3v-28a3,3,0,0,1,3,-3z" stroke-width="1"></path><g id="node_text12" fill="black"><text id="kity_text_135" text-rendering="inherit" font-size="14" dy=".8em" y="122.5" x="433.5">纯协程风格服务端</text></g><a id="kity_a_373" xlink:href="https://wiki.swoole.com/#/server/co_init" target="_blank" xlink:title="https://wiki.swoole.com/#/server/co_init" style="cursor: pointer;"><path id="kity_path_375" fill="rgba(255, 255, 255, 0)" stroke="none" d="M554.5,118.5h16a4,4,0,0,1,4,4v14a4,4,0,0,1,-4,4h-16a4,4,0,0,1,-4,-4v-14a4,4,0,0,1,4,-4z"></path><path id="kity_path_374" fill="#666" stroke="none" d="M569.114,134.724h-1.278c-1.668,0,-3.07,-1.07,-3.599,-2.556h4.877c0.707,0,1.278,-0.571,1.278,-1.278V128.334c0,-0.707,-0.571,-1.278,-1.278,-1.278h-4.877C564.766,125.571,566.168,124.5,567.836,124.5h1.278c2.116,0,3.834,1.716,3.834,3.834V130.89C572.948,133.008,571.23,134.724,569.114,134.724zM557.612,129.612c0,-0.707,0.573,-1.278,1.278,-1.278h7.668c0.707,0,1.278,0.571,1.278,1.278S567.265,130.89,566.558,130.89H558.89C558.185,130.89,557.612,130.319,557.612,129.612zM555.056,128.334V130.89c0,0.707,0.573,1.278,1.278,1.278h4.877c-0.528,1.486,-1.932,2.556,-3.599,2.556H556.334C554.216,134.724,552.5,133.008,552.5,130.89V128.334C552.5,126.216,554.216,124.5,556.334,124.5h1.278c1.667,0,3.071,1.071,3.599,2.556H556.334C555.629,127.056,555.056,127.627,555.056,128.334z"></path></a></g><g id="minder_node9"><g id="node_expander7" style="cursor: pointer;" display="none"><path id="kity_path_524" fill="white" stroke="gray" d="M385.5,36.5A6,6,0,1,1,373.5,36.5A6,6,0,1,1,385.5,36.5"></path><path id="kity_path_525" fill="none" stroke="gray"></path></g><path id="node_outline8" fill="none" stroke="none" d="M136.5,20.5h232a5,5,0,0,1,5,5v22a5,5,0,0,1,-5,5h-232a5,5,0,0,1,-5,-5v-22a5,5,0,0,1,5,-5z"></path><g id="node_text8" fill="black"><text id="kity_text_127" text-rendering="inherit" font-size="12" dy=".8em" y="30.5" x="166.5">Co\Server(协程TCP/UDP服务)</text></g><g id="node_priority6"><path id="kity_path_225" fill="#840023" stroke="none" d="M142,40c0,3.866,3.134,7,7,7h6c3.866,0,7,-3.134,7,-7V34H142V40z"></path><path id="kity_path_226" fill="#FF1200" stroke="none" d="M162,37c0,3.866,-3.134,7,-7,7H149c-3.866,0,-7,-3.134,-7,-7V34c0,-3.866,3.134,-7,7,-7h6c3.866,0,7,3.134,7,7V37z" opacity="0.8"></path><text id="kity_text_227" text-rendering="geometricPrecision" x="151" y="36.5" text-anchor="middle" font-style="italic" font-size="12" fill="white" dy="4">1</text></g><a id="kity_a_361" xlink:href="https://wiki.swoole.com/#/coroutine/server" target="_blank" xlink:title="https://wiki.swoole.com/#/coroutine/server" style="cursor: pointer;"><path id="kity_path_363" fill="rgba(255, 255, 255, 0)" stroke="none" d="M343.5,25.5h16a4,4,0,0,1,4,4v14a4,4,0,0,1,-4,4h-16a4,4,0,0,1,-4,-4v-14a4,4,0,0,1,4,-4z"></path><path id="kity_path_362" fill="#666" stroke="none" d="M358.114,41.724000000000004h-1.278c-1.668,0,-3.07,-1.07,-3.599,-2.556h4.877c0.707,0,1.278,-0.571,1.278,-1.278V35.334c0,-0.707,-0.571,-1.278,-1.278,-1.278h-4.877C353.766,32.571,355.168,31.5,356.836,31.5h1.278c2.116,0,3.834,1.716,3.834,3.834V37.89C361.948,40.007999999999996,360.23,41.724000000000004,358.114,41.724000000000004zM346.612,36.612c0,-0.707,0.573,-1.278,1.278,-1.278h7.668c0.707,0,1.278,0.571,1.278,1.278S356.265,37.89,355.558,37.89H347.89C347.185,37.89,346.612,37.319,346.612,36.612zM344.056,35.334V37.89c0,0.707,0.573,1.278,1.278,1.278h4.877c-0.528,1.486,-1.932,2.556,-3.599,2.556H345.334C343.216,41.724000000000004,341.5,40.007999999999996,341.5,37.89V35.334C341.5,33.216,343.216,31.5,345.334,31.5h1.278c1.667,0,3.071,1.071,3.599,2.556H345.334C344.629,34.056,344.056,34.627,344.056,35.334z"></path></a></g><g id="minder_node10"><g id="node_expander8" style="cursor: pointer;" display="none"><path id="kity_path_527" fill="white" stroke="gray" d="M385.5,98.5A6,6,0,1,1,373.5,98.5A6,6,0,1,1,385.5,98.5"></path><path id="kity_path_528" fill="none" stroke="gray"></path></g><path id="node_outline9" fill="none" stroke="none" d="M212.5,82.5h156a5,5,0,0,1,5,5v22a5,5,0,0,1,-5,5h-156a5,5,0,0,1,-5,-5v-22a5,5,0,0,1,5,-5z" stroke-width="3"></path><g id="node_text9" fill="black"><text id="kity_text_129" text-rendering="inherit" font-size="12" dy=".8em" y="92.5" x="242.5">Co\Http\Server</text></g><g id="node_priority7"><path id="kity_path_230" fill="#01467F" stroke="none" d="M218,102c0,3.866,3.134,7,7,7h6c3.866,0,7,-3.134,7,-7V96H218V102z"></path><path id="kity_path_231" fill="#0074FF" stroke="none" d="M238,99c0,3.866,-3.134,7,-7,7H225c-3.866,0,-7,-3.134,-7,-7V96c0,-3.866,3.134,-7,7,-7h6c3.866,0,7,3.134,7,7V99z" opacity="0.8"></path><text id="kity_text_232" text-rendering="geometricPrecision" x="227" y="98.5" text-anchor="middle" font-style="italic" font-size="12" fill="white" dy="4">2</text></g><a id="kity_a_364" xlink:href="https://wiki.swoole.com/#/coroutine/http_server" target="_blank" xlink:title="https://wiki.swoole.com/#/coroutine/http_server" style="cursor: pointer;"><path id="kity_path_366" fill="rgba(255, 255, 255, 0)" stroke="none" d="M343.5,87.5h16a4,4,0,0,1,4,4v14a4,4,0,0,1,-4,4h-16a4,4,0,0,1,-4,-4v-14a4,4,0,0,1,4,-4z"></path><path id="kity_path_365" fill="#666" stroke="none" d="M358.114,103.724h-1.278c-1.668,0,-3.07,-1.07,-3.599,-2.556h4.877c0.707,0,1.278,-0.571,1.278,-1.278V97.334c0,-0.707,-0.571,-1.278,-1.278,-1.278h-4.877C353.766,94.571,355.168,93.5,356.836,93.5h1.278c2.116,0,3.834,1.716,3.834,3.834V99.89C361.948,102.008,360.23,103.724,358.114,103.724zM346.612,98.612c0,-0.707,0.573,-1.278,1.278,-1.278h7.668c0.707,0,1.278,0.571,1.278,1.278S356.265,99.89,355.558,99.89H347.89C347.185,99.89,346.612,99.319,346.612,98.612zM344.056,97.334V99.89c0,0.707,0.573,1.278,1.278,1.278h4.877c-0.528,1.486,-1.932,2.556,-3.599,2.556H345.334C343.216,103.724,341.5,102.008,341.5,99.89V97.334C341.5,95.216,343.216,93.5,345.334,93.5h1.278c1.667,0,3.071,1.071,3.599,2.556H345.334C344.629,96.056,344.056,96.627,344.056,97.334z"></path></a></g><g id="minder_node11"><g id="node_expander9" style="cursor: pointer;" display="none"><path id="kity_path_530" fill="white" stroke="gray" d="M385.5,160.5A6,6,0,1,1,373.5,160.5A6,6,0,1,1,385.5,160.5"></path><path id="kity_path_531" fill="none" stroke="gray"></path></g><path id="node_outline10" fill="none" stroke="none" d="M171.5,144.5h197a5,5,0,0,1,5,5v22a5,5,0,0,1,-5,5h-197a5,5,0,0,1,-5,-5v-22a5,5,0,0,1,5,-5z" stroke-width="3"></path><g id="node_text10" fill="black"><text id="kity_text_131" text-rendering="inherit" font-size="12" dy=".8em" y="154.5" x="201.5">Co\Websocket\Server</text></g><g id="node_priority8"><path id="kity_path_235" fill="#006300" stroke="none" d="M177,164c0,3.866,3.134,7,7,7h6c3.866,0,7,-3.134,7,-7V158H177V164z"></path><path id="kity_path_236" fill="#00AF00" stroke="none" d="M197,161c0,3.866,-3.134,7,-7,7H184c-3.866,0,-7,-3.134,-7,-7V158c0,-3.866,3.134,-7,7,-7h6c3.866,0,7,3.134,7,7V161z" opacity="0.8"></path><text id="kity_text_237" text-rendering="geometricPrecision" x="186" y="160.5" text-anchor="middle" font-style="italic" font-size="12" fill="white" dy="4">3</text></g><a id="kity_a_367" xlink:href="https://wiki.swoole.com/#/coroutine/ws_server" target="_blank" xlink:title="https://wiki.swoole.com/#/coroutine/ws_server" style="cursor: pointer;"><path id="kity_path_369" fill="rgba(255, 255, 255, 0)" stroke="none" d="M343.5,149.5h16a4,4,0,0,1,4,4v14a4,4,0,0,1,-4,4h-16a4,4,0,0,1,-4,-4v-14a4,4,0,0,1,4,-4z"></path><path id="kity_path_368" fill="#666" stroke="none" d="M358.114,165.724h-1.278c-1.668,0,-3.07,-1.07,-3.599,-2.556h4.877c0.707,0,1.278,-0.571,1.278,-1.278V159.334c0,-0.707,-0.571,-1.278,-1.278,-1.278h-4.877C353.766,156.571,355.168,155.5,356.836,155.5h1.278c2.116,0,3.834,1.716,3.834,3.834V161.89C361.948,164.008,360.23,165.724,358.114,165.724zM346.612,160.612c0,-0.707,0.573,-1.278,1.278,-1.278h7.668c0.707,0,1.278,0.571,1.278,1.278S356.265,161.89,355.558,161.89H347.89C347.185,161.89,346.612,161.319,346.612,160.612zM344.056,159.334V161.89c0,0.707,0.573,1.278,1.278,1.278h4.877c-0.528,1.486,-1.932,2.556,-3.599,2.556H345.334C343.216,165.724,341.5,164.008,341.5,161.89V159.334C341.5,157.216,343.216,155.5,345.334,155.5h1.278c1.667,0,3.071,1.071,3.599,2.556H345.334C344.629,158.056,344.056,158.627,344.056,159.334z"></path></a></g><g id="minder_node12"><g id="node_expander10" style="cursor: pointer;" display="none"><path id="kity_path_533" fill="white" stroke="gray" d="M385.5,222.5A6,6,0,1,1,373.5,222.5A6,6,0,1,1,385.5,222.5"></path><path id="kity_path_534" fill="none" stroke="gray"></path></g><path id="node_outline11" fill="none" stroke="none" d="M25.5,206.5h343a5,5,0,0,1,5,5v22a5,5,0,0,1,-5,5h-343a5,5,0,0,1,-5,-5v-22a5,5,0,0,1,5,-5z" stroke-width="3"></path><g id="node_text11" fill="black"><text id="kity_text_133" text-rendering="inherit" font-size="12" dy=".8em" y="216.5" x="55.5">Co\run(协程容器，协程Server需在协程容器里启动)</text></g><g id="node_priority9"><path id="kity_path_240" fill="#B25000" stroke="none" d="M31,226c0,3.866,3.134,7,7,7h6c3.866,0,7,-3.134,7,-7V220H31V226z"></path><path id="kity_path_241" fill="#FF962E" stroke="none" d="M51,223c0,3.866,-3.134,7,-7,7H38c-3.866,0,-7,-3.134,-7,-7V220c0,-3.866,3.134,-7,7,-7h6c3.866,0,7,3.134,7,7V223z" opacity="0.8"></path><text id="kity_text_242" text-rendering="geometricPrecision" x="40" y="222.5" text-anchor="middle" font-style="italic" font-size="12" fill="white" dy="4">4</text></g><a id="kity_a_370" xlink:href="https://wiki.swoole.com/#/coroutine/scheduler" target="_blank" xlink:title="https://wiki.swoole.com/#/coroutine/scheduler" style="cursor: pointer;"><path id="kity_path_372" fill="rgba(255, 255, 255, 0)" stroke="none" d="M343.5,211.5h16a4,4,0,0,1,4,4v14a4,4,0,0,1,-4,4h-16a4,4,0,0,1,-4,-4v-14a4,4,0,0,1,4,-4z"></path><path id="kity_path_371" fill="#666" stroke="none" d="M358.114,227.724h-1.278c-1.668,0,-3.07,-1.07,-3.599,-2.556h4.877c0.707,0,1.278,-0.571,1.278,-1.278V221.334c0,-0.707,-0.571,-1.278,-1.278,-1.278h-4.877C353.766,218.571,355.168,217.5,356.836,217.5h1.278c2.116,0,3.834,1.716,3.834,3.834V223.89C361.948,226.008,360.23,227.724,358.114,227.724zM346.612,222.612c0,-0.707,0.573,-1.278,1.278,-1.278h7.668c0.707,0,1.278,0.571,1.278,1.278S356.265,223.89,355.558,223.89H347.89C347.185,223.89,346.612,223.319,346.612,222.612zM344.056,221.334V223.89c0,0.707,0.573,1.278,1.278,1.278h4.877c-0.528,1.486,-1.932,2.556,-3.599,2.556H345.334C343.216,227.724,341.5,226.008,341.5,223.89V221.334C341.5,219.216,343.216,217.5,345.334,217.5h1.278c1.667,0,3.071,1.071,3.599,2.556H345.334C344.629,220.056,344.056,220.627,344.056,221.334z"></path></a></g><g id="minder_node13"><g id="node_expander26" style="cursor: pointer;"><path id="kity_path_581" fill="white" stroke="gray" d="M895.5,732.5A6,6,0,1,1,883.5,732.5A6,6,0,1,1,895.5,732.5"></path><path id="kity_path_582" fill="none" stroke="gray" d="M885,732.5L894,732.5"></path></g><path id="node_outline27" fill="rgb(238, 243, 246)" stroke="rgb(115, 161, 191)" d="M899.5,715.5h105a3,3,0,0,1,3,3v28a3,3,0,0,1,-3,3h-105a3,3,0,0,1,-3,-3v-28a3,3,0,0,1,3,-3z" stroke-width="1"></path><g id="node_text27" fill="black"><text id="kity_text_165" text-rendering="inherit" font-size="14" dy=".8em" y="725.5" x="916.5">客户端</text></g><a id="kity_a_418" xlink:href="https://wiki.swoole.com/#/client_init" target="_blank" xlink:title="https://wiki.swoole.com/#/client_init" style="cursor: pointer;"><path id="kity_path_420" fill="rgba(255, 255, 255, 0)" stroke="none" d="M967.5,721.5h16a4,4,0,0,1,4,4v14a4,4,0,0,1,-4,4h-16a4,4,0,0,1,-4,-4v-14a4,4,0,0,1,4,-4z"></path><path id="kity_path_419" fill="#666" stroke="none" d="M982.114,737.724h-1.278c-1.668,0,-3.07,-1.07,-3.599,-2.556h4.877c0.707,0,1.278,-0.571,1.278,-1.278V731.334c0,-0.707,-0.571,-1.278,-1.278,-1.278h-4.877C977.766,728.571,979.168,727.5,980.836,727.5h1.278c2.116,0,3.834,1.716,3.834,3.834V733.89C985.948,736.008,984.23,737.724,982.114,737.724zM970.612,732.612c0,-0.707,0.573,-1.278,1.278,-1.278h7.668c0.707,0,1.278,0.571,1.278,1.278S980.265,733.89,979.558,733.89H971.89C971.185,733.89,970.612,733.319,970.612,732.612zM968.056,731.334V733.89c0,0.707,0.573,1.278,1.278,1.278h4.877c-0.528,1.486,-1.932,2.556,-3.599,2.556H969.334C967.216,737.724,965.5,736.008,965.5,733.89V731.334C965.5,729.216,967.216,727.5,969.334,727.5h1.278c1.667,0,3.071,1.071,3.599,2.556H969.334C968.629,730.056,968.056,730.627,968.056,731.334z"></path></a></g><g id="minder_node14"><g id="node_expander12" style="cursor: pointer;" display="none"><path id="kity_path_539" fill="white" stroke="gray" d="M1047.5,438.5A6,6,0,1,1,1035.5,438.5A6,6,0,1,1,1047.5,438.5"></path><path id="kity_path_540" fill="none" stroke="gray"></path></g><path id="node_outline13" fill="none" stroke="none" d="M1052.5,422.5h264a5,5,0,0,1,5,5v22a5,5,0,0,1,-5,5h-264a5,5,0,0,1,-5,-5v-22a5,5,0,0,1,5,-5z"></path><g id="node_text13" fill="black"><text id="kity_text_137" text-rendering="inherit" font-size="12" dy=".8em" y="432.5" x="1082.5">Client(同步IO的客户端，可用于FPM)</text></g><g id="node_priority10"><path id="kity_path_245" fill="#840023" stroke="none" d="M1058,442c0,3.866,3.134,7,7,7h6c3.866,0,7,-3.134,7,-7V436H1058V442z"></path><path id="kity_path_246" fill="#FF1200" stroke="none" d="M1078,439c0,3.866,-3.134,7,-7,7H1065c-3.866,0,-7,-3.134,-7,-7V436c0,-3.866,3.134,-7,7,-7h6c3.866,0,7,3.134,7,7V439z" opacity="0.8"></path><text id="kity_text_247" text-rendering="geometricPrecision" x="1067" y="438.5" text-anchor="middle" font-style="italic" font-size="12" fill="white" dy="4">1</text></g><a id="kity_a_376" xlink:href="https://wiki.swoole.com/#/client" target="_blank" xlink:title="https://wiki.swoole.com/#/client" style="cursor: pointer;"><path id="kity_path_378" fill="rgba(255, 255, 255, 0)" stroke="none" d="M1291.5,427.5h16a4,4,0,0,1,4,4v14a4,4,0,0,1,-4,4h-16a4,4,0,0,1,-4,-4v-14a4,4,0,0,1,4,-4z"></path><path id="kity_path_377" fill="#666" stroke="none" d="M1306.114,443.724h-1.278c-1.668,0,-3.07,-1.07,-3.599,-2.556h4.877c0.707,0,1.278,-0.571,1.278,-1.278V437.334c0,-0.707,-0.571,-1.278,-1.278,-1.278h-4.877C1301.766,434.571,1303.168,433.5,1304.836,433.5h1.278c2.116,0,3.834,1.716,3.834,3.834V439.89C1309.948,442.008,1308.23,443.724,1306.114,443.724zM1294.612,438.612c0,-0.707,0.573,-1.278,1.278,-1.278h7.668c0.707,0,1.278,0.571,1.278,1.278S1304.265,439.89,1303.558,439.89H1295.89C1295.185,439.89,1294.612,439.319,1294.612,438.612zM1292.056,437.334V439.89c0,0.707,0.573,1.278,1.278,1.278h4.877c-0.528,1.486,-1.932,2.556,-3.599,2.556H1293.334C1291.216,443.724,1289.5,442.008,1289.5,439.89V437.334C1289.5,435.216,1291.216,433.5,1293.334,433.5h1.278c1.667,0,3.071,1.071,3.599,2.556H1293.334C1292.629,436.056,1292.056,436.627,1292.056,437.334z"></path></a></g><g id="minder_node15"><g id="node_expander13" style="cursor: pointer;" display="none"><path id="kity_path_542" fill="white" stroke="gray" d="M1047.5,500.5A6,6,0,1,1,1035.5,500.5A6,6,0,1,1,1047.5,500.5"></path><path id="kity_path_543" fill="none" stroke="gray"></path></g><path id="node_outline14" fill="none" stroke="none" d="M1052.5,484.5h321a5,5,0,0,1,5,5v22a5,5,0,0,1,-5,5h-321a5,5,0,0,1,-5,-5v-22a5,5,0,0,1,5,-5z"></path><g id="node_text14" fill="black"><text id="kity_text_139" text-rendering="inherit" font-size="12" dy=".8em" y="494.5" x="1082.5">Co\Client(协程客户端，用法和Client完全一致)</text></g><g id="node_priority11"><path id="kity_path_250" fill="#01467F" stroke="none" d="M1058,504c0,3.866,3.134,7,7,7h6c3.866,0,7,-3.134,7,-7V498H1058V504z"></path><path id="kity_path_251" fill="#0074FF" stroke="none" d="M1078,501c0,3.866,-3.134,7,-7,7H1065c-3.866,0,-7,-3.134,-7,-7V498c0,-3.866,3.134,-7,7,-7h6c3.866,0,7,3.134,7,7V501z" opacity="0.8"></path><text id="kity_text_252" text-rendering="geometricPrecision" x="1067" y="500.5" text-anchor="middle" font-style="italic" font-size="12" fill="white" dy="4">2</text></g><a id="kity_a_379" xlink:href="https://wiki.swoole.com/#/coroutine_client/client" target="_blank" xlink:title="https://wiki.swoole.com/#/coroutine_client/client" style="cursor: pointer;"><path id="kity_path_381" fill="rgba(255, 255, 255, 0)" stroke="none" d="M1348.5,489.5h16a4,4,0,0,1,4,4v14a4,4,0,0,1,-4,4h-16a4,4,0,0,1,-4,-4v-14a4,4,0,0,1,4,-4z"></path><path id="kity_path_380" fill="#666" stroke="none" d="M1363.114,505.724h-1.278c-1.668,0,-3.07,-1.07,-3.599,-2.556h4.877c0.707,0,1.278,-0.571,1.278,-1.278V499.334c0,-0.707,-0.571,-1.278,-1.278,-1.278h-4.877C1358.766,496.571,1360.168,495.5,1361.836,495.5h1.278c2.116,0,3.834,1.716,3.834,3.834V501.89C1366.948,504.008,1365.23,505.724,1363.114,505.724zM1351.612,500.612c0,-0.707,0.573,-1.278,1.278,-1.278h7.668c0.707,0,1.278,0.571,1.278,1.278S1361.265,501.89,1360.558,501.89H1352.89C1352.185,501.89,1351.612,501.319,1351.612,500.612zM1349.056,499.334V501.89c0,0.707,0.573,1.278,1.278,1.278h4.877c-0.528,1.486,-1.932,2.556,-3.599,2.556H1350.334C1348.216,505.724,1346.5,504.008,1346.5,501.89V499.334C1346.5,497.216,1348.216,495.5,1350.334,495.5h1.278c1.667,0,3.071,1.071,3.599,2.556H1350.334C1349.629,498.056,1349.056,498.627,1349.056,499.334z"></path></a></g><g id="minder_node16"><g id="node_expander14" style="cursor: pointer;" display="none"><path id="kity_path_545" fill="white" stroke="gray" d="M1047.5,562.5A6,6,0,1,1,1035.5,562.5A6,6,0,1,1,1047.5,562.5"></path><path id="kity_path_546" fill="none" stroke="gray"></path></g><path id="node_outline15" fill="none" stroke="none" d="M1052.5,546.5h298a5,5,0,0,1,5,5v22a5,5,0,0,1,-5,5h-298a5,5,0,0,1,-5,-5v-22a5,5,0,0,1,5,-5z"></path><g id="node_text15" fill="black"><text id="kity_text_141" text-rendering="inherit" font-size="12" dy=".8em" y="556.5" x="1082.5">Co\Http\Client和Co\Websocket\Client</text></g><g id="node_priority12"><path id="kity_path_255" fill="#006300" stroke="none" d="M1058,566c0,3.866,3.134,7,7,7h6c3.866,0,7,-3.134,7,-7V560H1058V566z"></path><path id="kity_path_256" fill="#00AF00" stroke="none" d="M1078,563c0,3.866,-3.134,7,-7,7H1065c-3.866,0,-7,-3.134,-7,-7V560c0,-3.866,3.134,-7,7,-7h6c3.866,0,7,3.134,7,7V563z" opacity="0.8"></path><text id="kity_text_257" text-rendering="geometricPrecision" x="1067" y="562.5" text-anchor="middle" font-style="italic" font-size="12" fill="white" dy="4">3</text></g><a id="kity_a_382" xlink:href="https://wiki.swoole.com/#/coroutine_client/http_client" target="_blank" xlink:title="https://wiki.swoole.com/#/coroutine_client/http_client" style="cursor: pointer;"><path id="kity_path_384" fill="rgba(255, 255, 255, 0)" stroke="none" d="M1325.5,551.5h16a4,4,0,0,1,4,4v14a4,4,0,0,1,-4,4h-16a4,4,0,0,1,-4,-4v-14a4,4,0,0,1,4,-4z"></path><path id="kity_path_383" fill="#666" stroke="none" d="M1340.114,567.724h-1.278c-1.668,0,-3.07,-1.07,-3.599,-2.556h4.877c0.707,0,1.278,-0.571,1.278,-1.278V561.334c0,-0.707,-0.571,-1.278,-1.278,-1.278h-4.877C1335.766,558.571,1337.168,557.5,1338.836,557.5h1.278c2.116,0,3.834,1.716,3.834,3.834V563.89C1343.948,566.008,1342.23,567.724,1340.114,567.724zM1328.612,562.612c0,-0.707,0.573,-1.278,1.278,-1.278h7.668c0.707,0,1.278,0.571,1.278,1.278S1338.265,563.89,1337.558,563.89H1329.89C1329.185,563.89,1328.612,563.319,1328.612,562.612zM1326.056,561.334V563.89c0,0.707,0.573,1.278,1.278,1.278h4.877c-0.528,1.486,-1.932,2.556,-3.599,2.556H1327.334C1325.216,567.724,1323.5,566.008,1323.5,563.89V561.334C1323.5,559.216,1325.216,557.5,1327.334,557.5h1.278c1.667,0,3.071,1.071,3.599,2.556H1327.334C1326.629,560.056,1326.056,560.627,1326.056,561.334z"></path></a></g><g id="minder_node17"><g id="node_expander15" style="cursor: pointer;" display="none"><path id="kity_path_548" fill="white" stroke="gray" d="M1047.5,624.5A6,6,0,1,1,1035.5,624.5A6,6,0,1,1,1047.5,624.5"></path><path id="kity_path_549" fill="none" stroke="gray"></path></g><path id="node_outline16" fill="none" stroke="none" d="M1052.5,608.5h161a5,5,0,0,1,5,5v22a5,5,0,0,1,-5,5h-161a5,5,0,0,1,-5,-5v-22a5,5,0,0,1,5,-5z"></path><g id="node_text16" fill="black"><text id="kity_text_143" text-rendering="inherit" font-size="12" dy=".8em" y="618.5" x="1082.5">Co\Http2\Client</text></g><g id="node_priority13"><path id="kity_path_260" fill="#B25000" stroke="none" d="M1058,628c0,3.866,3.134,7,7,7h6c3.866,0,7,-3.134,7,-7V622H1058V628z"></path><path id="kity_path_261" fill="#FF962E" stroke="none" d="M1078,625c0,3.866,-3.134,7,-7,7H1065c-3.866,0,-7,-3.134,-7,-7V622c0,-3.866,3.134,-7,7,-7h6c3.866,0,7,3.134,7,7V625z" opacity="0.8"></path><text id="kity_text_262" text-rendering="geometricPrecision" x="1067" y="624.5" text-anchor="middle" font-style="italic" font-size="12" fill="white" dy="4">4</text></g><a id="kity_a_385" xlink:href="https://wiki.swoole.com/#/coroutine_client/http2_client" target="_blank" xlink:title="https://wiki.swoole.com/#/coroutine_client/http2_client" style="cursor: pointer;"><path id="kity_path_387" fill="rgba(255, 255, 255, 0)" stroke="none" d="M1188.5,613.5h16a4,4,0,0,1,4,4v14a4,4,0,0,1,-4,4h-16a4,4,0,0,1,-4,-4v-14a4,4,0,0,1,4,-4z"></path><path id="kity_path_386" fill="#666" stroke="none" d="M1203.114,629.724h-1.278c-1.668,0,-3.07,-1.07,-3.599,-2.556h4.877c0.707,0,1.278,-0.571,1.278,-1.278V623.334c0,-0.707,-0.571,-1.278,-1.278,-1.278h-4.877C1198.766,620.571,1200.168,619.5,1201.836,619.5h1.278c2.116,0,3.834,1.716,3.834,3.834V625.89C1206.948,628.008,1205.23,629.724,1203.114,629.724zM1191.612,624.612c0,-0.707,0.573,-1.278,1.278,-1.278h7.668c0.707,0,1.278,0.571,1.278,1.278S1201.265,625.89,1200.558,625.89H1192.89C1192.185,625.89,1191.612,625.319,1191.612,624.612zM1189.056,623.334V625.89c0,0.707,0.573,1.278,1.278,1.278h4.877c-0.528,1.486,-1.932,2.556,-3.599,2.556H1190.334C1188.216,629.724,1186.5,628.008,1186.5,625.89V623.334C1186.5,621.216,1188.216,619.5,1190.334,619.5h1.278c1.667,0,3.071,1.071,3.599,2.556H1190.334C1189.629,622.056,1189.056,622.627,1189.056,623.334z"></path></a></g><g id="minder_node18"><g id="node_expander16" style="cursor: pointer;" display="none"><path id="kity_path_551" fill="white" stroke="gray" d="M1047.5,686.5A6,6,0,1,1,1035.5,686.5A6,6,0,1,1,1047.5,686.5"></path><path id="kity_path_552" fill="none" stroke="gray"></path></g><path id="node_outline17" fill="none" stroke="none" d="M1052.5,670.5h246a5,5,0,0,1,5,5v22a5,5,0,0,1,-5,5h-246a5,5,0,0,1,-5,-5v-22a5,5,0,0,1,5,-5z"></path><g id="node_text17" fill="black"><text id="kity_text_145" text-rendering="inherit" font-size="12" dy=".8em" y="680.5" x="1082.5">Co\System(系统函数协程客户端)</text></g><g id="node_priority14"><path id="kity_path_265" fill="#4720C4" stroke="none" d="M1058,690c0,3.866,3.134,7,7,7h6c3.866,0,7,-3.134,7,-7V684H1058V690z"></path><path id="kity_path_266" fill="#A464FF" stroke="none" d="M1078,687c0,3.866,-3.134,7,-7,7H1065c-3.866,0,-7,-3.134,-7,-7V684c0,-3.866,3.134,-7,7,-7h6c3.866,0,7,3.134,7,7V687z" opacity="0.8"></path><text id="kity_text_267" text-rendering="geometricPrecision" x="1067" y="686.5" text-anchor="middle" font-style="italic" font-size="12" fill="white" dy="4">5</text></g><a id="kity_a_388" xlink:href="https://wiki.swoole.com/#/coroutine/system" target="_blank" xlink:title="https://wiki.swoole.com/#/coroutine/system" style="cursor: pointer;"><path id="kity_path_390" fill="rgba(255, 255, 255, 0)" stroke="none" d="M1273.5,675.5h16a4,4,0,0,1,4,4v14a4,4,0,0,1,-4,4h-16a4,4,0,0,1,-4,-4v-14a4,4,0,0,1,4,-4z"></path><path id="kity_path_389" fill="#666" stroke="none" d="M1288.114,691.724h-1.278c-1.668,0,-3.07,-1.07,-3.599,-2.556h4.877c0.707,0,1.278,-0.571,1.278,-1.278V685.334c0,-0.707,-0.571,-1.278,-1.278,-1.278h-4.877C1283.766,682.571,1285.168,681.5,1286.836,681.5h1.278c2.116,0,3.834,1.716,3.834,3.834V687.89C1291.948,690.008,1290.23,691.724,1288.114,691.724zM1276.612,686.612c0,-0.707,0.573,-1.278,1.278,-1.278h7.668c0.707,0,1.278,0.571,1.278,1.278S1286.265,687.89,1285.558,687.89H1277.89C1277.185,687.89,1276.612,687.319,1276.612,686.612zM1274.056,685.334V687.89c0,0.707,0.573,1.278,1.278,1.278h4.877c-0.528,1.486,-1.932,2.556,-3.599,2.556H1275.334C1273.216,691.724,1271.5,690.008,1271.5,687.89V685.334C1271.5,683.216,1273.216,681.5,1275.334,681.5h1.278c1.667,0,3.071,1.071,3.599,2.556H1275.334C1274.629,684.056,1274.056,684.627,1274.056,685.334z"></path></a></g><g id="minder_node19"><g id="node_expander17" style="cursor: pointer;" display="none"><path id="kity_path_554" fill="white" stroke="gray" d="M1047.5,748.5A6,6,0,1,1,1035.5,748.5A6,6,0,1,1,1047.5,748.5"></path><path id="kity_path_555" fill="none" stroke="gray"></path></g><path id="node_outline18" fill="none" stroke="none" d="M1052.5,732.5h233a5,5,0,0,1,5,5v22a5,5,0,0,1,-5,5h-233a5,5,0,0,1,-5,-5v-22a5,5,0,0,1,5,-5z"></path><g id="node_text18" fill="black"><text id="kity_text_147" text-rendering="inherit" font-size="12" dy=".8em" y="742.5" x="1082.5">Co\Socket(套接字协程客户端)</text></g><g id="node_priority15"><path id="kity_path_270" fill="#515151" stroke="none" d="M1058,752c0,3.866,3.134,7,7,7h6c3.866,0,7,-3.134,7,-7V746H1058V752z"></path><path id="kity_path_271" fill="#A3A3A3" stroke="none" d="M1078,749c0,3.866,-3.134,7,-7,7H1065c-3.866,0,-7,-3.134,-7,-7V746c0,-3.866,3.134,-7,7,-7h6c3.866,0,7,3.134,7,7V749z" opacity="0.8"></path><text id="kity_text_272" text-rendering="geometricPrecision" x="1067" y="748.5" text-anchor="middle" font-style="italic" font-size="12" fill="white" dy="4">6</text></g><a id="kity_a_391" xlink:href="https://wiki.swoole.com/#/coroutine_client/socket" target="_blank" xlink:title="https://wiki.swoole.com/#/coroutine_client/socket" style="cursor: pointer;"><path id="kity_path_393" fill="rgba(255, 255, 255, 0)" stroke="none" d="M1260.5,737.5h16a4,4,0,0,1,4,4v14a4,4,0,0,1,-4,4h-16a4,4,0,0,1,-4,-4v-14a4,4,0,0,1,4,-4z"></path><path id="kity_path_392" fill="#666" stroke="none" d="M1275.114,753.724h-1.278c-1.668,0,-3.07,-1.07,-3.599,-2.556h4.877c0.707,0,1.278,-0.571,1.278,-1.278V747.334c0,-0.707,-0.571,-1.278,-1.278,-1.278h-4.877C1270.766,744.571,1272.168,743.5,1273.836,743.5h1.278c2.116,0,3.834,1.716,3.834,3.834V749.89C1278.948,752.008,1277.23,753.724,1275.114,753.724zM1263.612,748.612c0,-0.707,0.573,-1.278,1.278,-1.278h7.668c0.707,0,1.278,0.571,1.278,1.278S1273.265,749.89,1272.558,749.89H1264.89C1264.185,749.89,1263.612,749.319,1263.612,748.612zM1261.056,747.334V749.89c0,0.707,0.573,1.278,1.278,1.278h4.877c-0.528,1.486,-1.932,2.556,-3.599,2.556H1262.334C1260.216,753.724,1258.5,752.008,1258.5,749.89V747.334C1258.5,745.216,1260.216,743.5,1262.334,743.5h1.278c1.667,0,3.071,1.071,3.599,2.556H1262.334C1261.629,746.056,1261.056,746.627,1261.056,747.334z"></path></a></g><g id="minder_node20"><g id="node_expander18" style="cursor: pointer;" display="none"><path id="kity_path_557" fill="white" stroke="gray" d="M1047.5,810.5A6,6,0,1,1,1035.5,810.5A6,6,0,1,1,1047.5,810.5"></path><path id="kity_path_558" fill="none" stroke="gray"></path></g><path id="node_outline19" fill="none" stroke="none" d="M1052.5,794.5h256a5,5,0,0,1,5,5v22a5,5,0,0,1,-5,5h-256a5,5,0,0,1,-5,-5v-22a5,5,0,0,1,5,-5z"></path><g id="node_text19" fill="black"><text id="kity_text_149" text-rendering="inherit" font-size="12" dy=".8em" y="804.5" x="1082.5">Co\PostgreSQL(pgSql协程客户端)</text></g><g id="node_priority16"><path id="kity_path_275" fill="#515151" stroke="none" d="M1058,814c0,3.866,3.134,7,7,7h6c3.866,0,7,-3.134,7,-7V808H1058V814z"></path><path id="kity_path_276" fill="#A3A3A3" stroke="none" d="M1078,811c0,3.866,-3.134,7,-7,7H1065c-3.866,0,-7,-3.134,-7,-7V808c0,-3.866,3.134,-7,7,-7h6c3.866,0,7,3.134,7,7V811z" opacity="0.8"></path><text id="kity_text_277" text-rendering="geometricPrecision" x="1067" y="810.5" text-anchor="middle" font-style="italic" font-size="12" fill="white" dy="4">7</text></g><a id="kity_a_394" xlink:href="https://wiki.swoole.com/#/coroutine_client/postgresql" target="_blank" xlink:title="https://wiki.swoole.com/#/coroutine_client/postgresql" style="cursor: pointer;"><path id="kity_path_396" fill="rgba(255, 255, 255, 0)" stroke="none" d="M1283.5,799.5h16a4,4,0,0,1,4,4v14a4,4,0,0,1,-4,4h-16a4,4,0,0,1,-4,-4v-14a4,4,0,0,1,4,-4z"></path><path id="kity_path_395" fill="#666" stroke="none" d="M1298.114,815.724h-1.278c-1.668,0,-3.07,-1.07,-3.599,-2.556h4.877c0.707,0,1.278,-0.571,1.278,-1.278V809.334c0,-0.707,-0.571,-1.278,-1.278,-1.278h-4.877C1293.766,806.571,1295.168,805.5,1296.836,805.5h1.278c2.116,0,3.834,1.716,3.834,3.834V811.89C1301.948,814.008,1300.23,815.724,1298.114,815.724zM1286.612,810.612c0,-0.707,0.573,-1.278,1.278,-1.278h7.668c0.707,0,1.278,0.571,1.278,1.278S1296.265,811.89,1295.558,811.89H1287.89C1287.185,811.89,1286.612,811.319,1286.612,810.612zM1284.056,809.334V811.89c0,0.707,0.573,1.278,1.278,1.278h4.877c-0.528,1.486,-1.932,2.556,-3.599,2.556H1285.334C1283.216,815.724,1281.5,814.008,1281.5,811.89V809.334C1281.5,807.216,1283.216,805.5,1285.334,805.5h1.278c1.667,0,3.071,1.071,3.599,2.556H1285.334C1284.629,808.056,1284.056,808.627,1284.056,809.334z"></path></a></g><g id="minder_node21"><g id="node_expander25" style="cursor: pointer;"><path id="kity_path_578" fill="white" stroke="gray" d="M944.5,994.5A6,6,0,1,1,932.5,994.5A6,6,0,1,1,944.5,994.5"></path><path id="kity_path_579" fill="none" stroke="gray" d="M934,994.5L943,994.5"></path></g><path id="node_outline26" fill="none" stroke="none" d="M949.5,978.5h362a5,5,0,0,1,5,5v22a5,5,0,0,1,-5,5h-362a5,5,0,0,1,-5,-5v-22a5,5,0,0,1,5,-5z"></path><g id="node_text26" fill="#ff0000"><text id="kity_text_163" text-rendering="inherit" font-size="16" dy=".8em" font-weight="bold" y="986.5" x="979.5">一键协程化(拦截PHP原生函数将其协程化)</text></g><g id="node_priority17"><path id="kity_path_280" fill="#515151" stroke="none" d="M955,998c0,3.866,3.134,7,7,7h6c3.866,0,7,-3.134,7,-7V992H955V998z"></path><path id="kity_path_281" fill="#A3A3A3" stroke="none" d="M975,995c0,3.866,-3.134,7,-7,7H962c-3.866,0,-7,-3.134,-7,-7V992c0,-3.866,3.134,-7,7,-7h6c3.866,0,7,3.134,7,7V995z" opacity="0.8"></path><text id="kity_text_282" text-rendering="geometricPrecision" x="964" y="994.5" text-anchor="middle" font-style="italic" font-size="12" fill="white" dy="4">8</text></g><a id="kity_a_415" xlink:href="https://wiki.swoole.com/#/runtime" target="_blank" xlink:title="https://wiki.swoole.com/#/runtime" style="cursor: pointer;"><path id="kity_path_417" fill="rgba(255, 255, 255, 0)" stroke="none" d="M1286.5,983.5h16a4,4,0,0,1,4,4v14a4,4,0,0,1,-4,4h-16a4,4,0,0,1,-4,-4v-14a4,4,0,0,1,4,-4z"></path><path id="kity_path_416" fill="#666" stroke="none" d="M1301.114,999.724h-1.278c-1.668,0,-3.07,-1.07,-3.599,-2.556h4.877c0.707,0,1.278,-0.571,1.278,-1.278V993.334c0,-0.707,-0.571,-1.278,-1.278,-1.278h-4.877C1296.766,990.571,1298.168,989.5,1299.836,989.5h1.278c2.116,0,3.834,1.716,3.834,3.834V995.89C1304.948,998.008,1303.23,999.724,1301.114,999.724zM1289.612,994.612c0,-0.707,0.573,-1.278,1.278,-1.278h7.668c0.707,0,1.278,0.571,1.278,1.278S1299.265,995.89,1298.558,995.89H1290.89C1290.185,995.89,1289.612,995.319,1289.612,994.612zM1287.056,993.334V995.89c0,0.707,0.573,1.278,1.278,1.278h4.877c-0.528,1.486,-1.932,2.556,-3.599,2.556H1288.334C1286.216,999.724,1284.5,998.008,1284.5,995.89V993.334C1284.5,991.216,1286.216,989.5,1288.334,989.5h1.278c1.667,0,3.071,1.071,3.599,2.556H1288.334C1287.629,992.056,1287.056,992.627,1287.056,993.334z"></path></a></g><g id="minder_node22"><g id="node_expander19" style="cursor: pointer;" display="none"><path id="kity_path_560" fill="white" stroke="gray" d="M1356.5,839.5A6,6,0,1,1,1344.5,839.5A6,6,0,1,1,1356.5,839.5"></path><path id="kity_path_561" fill="none" stroke="gray"></path></g><path id="node_outline20" fill="none" stroke="none" d="M1361.5,823.5h155a5,5,0,0,1,5,5v22a5,5,0,0,1,-5,5h-155a5,5,0,0,1,-5,-5v-22a5,5,0,0,1,5,-5z"></path><g id="node_text20" fill="black"><text id="kity_text_151" text-rendering="inherit" font-size="12" dy=".8em" y="833.5" x="1366.5">Redis，PDO，Mysqli</text></g><a id="kity_a_397" xlink:href="https://wiki.swoole.com/#/runtime?id=swoole_hook_tcp" target="_blank" xlink:title="https://wiki.swoole.com/#/runtime?id=swoole_hook_tcp" style="cursor: pointer;"><path id="kity_path_399" fill="rgba(255, 255, 255, 0)" stroke="none" d="M1491.5,828.5h16a4,4,0,0,1,4,4v14a4,4,0,0,1,-4,4h-16a4,4,0,0,1,-4,-4v-14a4,4,0,0,1,4,-4z"></path><path id="kity_path_398" fill="#666" stroke="none" d="M1506.114,844.724h-1.278c-1.668,0,-3.07,-1.07,-3.599,-2.556h4.877c0.707,0,1.278,-0.571,1.278,-1.278V838.334c0,-0.707,-0.571,-1.278,-1.278,-1.278h-4.877C1501.766,835.571,1503.168,834.5,1504.836,834.5h1.278c2.116,0,3.834,1.716,3.834,3.834V840.89C1509.948,843.008,1508.23,844.724,1506.114,844.724zM1494.612,839.612c0,-0.707,0.573,-1.278,1.278,-1.278h7.668c0.707,0,1.278,0.571,1.278,1.278S1504.265,840.89,1503.558,840.89H1495.89C1495.185,840.89,1494.612,840.319,1494.612,839.612zM1492.056,838.334V840.89c0,0.707,0.573,1.278,1.278,1.278h4.877c-0.528,1.486,-1.932,2.556,-3.599,2.556H1493.334C1491.216,844.724,1489.5,843.008,1489.5,840.89V838.334C1489.5,836.216,1491.216,834.5,1493.334,834.5h1.278c1.667,0,3.071,1.071,3.599,2.556H1493.334C1492.629,837.056,1492.056,837.627,1492.056,838.334z"></path></a></g><g id="minder_node23"><g id="node_expander20" style="cursor: pointer;" display="none"><path id="kity_path_563" fill="white" stroke="gray" d="M1356.5,901.5A6,6,0,1,1,1344.5,901.5A6,6,0,1,1,1356.5,901.5"></path><path id="kity_path_564" fill="none" stroke="gray"></path></g><path id="node_outline21" fill="none" stroke="none" d="M1361.5,885.5h123a5,5,0,0,1,5,5v22a5,5,0,0,1,-5,5h-123a5,5,0,0,1,-5,-5v-22a5,5,0,0,1,5,-5z"></path><g id="node_text21" fill="black"><text id="kity_text_153" text-rendering="inherit" font-size="12" dy=".8em" y="895.5" x="1366.5">stream_socket</text></g><a id="kity_a_400" xlink:href="https://wiki.swoole.com/#/runtime?id=swoole_hook_unix" target="_blank" xlink:title="https://wiki.swoole.com/#/runtime?id=swoole_hook_unix" style="cursor: pointer;"><path id="kity_path_402" fill="rgba(255, 255, 255, 0)" stroke="none" d="M1459.5,890.5h16a4,4,0,0,1,4,4v14a4,4,0,0,1,-4,4h-16a4,4,0,0,1,-4,-4v-14a4,4,0,0,1,4,-4z"></path><path id="kity_path_401" fill="#666" stroke="none" d="M1474.114,906.724h-1.278c-1.668,0,-3.07,-1.07,-3.599,-2.556h4.877c0.707,0,1.278,-0.571,1.278,-1.278V900.334c0,-0.707,-0.571,-1.278,-1.278,-1.278h-4.877C1469.766,897.571,1471.168,896.5,1472.836,896.5h1.278c2.116,0,3.834,1.716,3.834,3.834V902.89C1477.948,905.008,1476.23,906.724,1474.114,906.724zM1462.612,901.612c0,-0.707,0.573,-1.278,1.278,-1.278h7.668c0.707,0,1.278,0.571,1.278,1.278S1472.265,902.89,1471.558,902.89H1463.89C1463.185,902.89,1462.612,902.319,1462.612,901.612zM1460.056,900.334V902.89c0,0.707,0.573,1.278,1.278,1.278h4.877c-0.528,1.486,-1.932,2.556,-3.599,2.556H1461.334C1459.216,906.724,1457.5,905.008,1457.5,902.89V900.334C1457.5,898.216,1459.216,896.5,1461.334,896.5h1.278c1.667,0,3.071,1.071,3.599,2.556H1461.334C1460.629,899.056,1460.056,899.627,1460.056,900.334z"></path></a></g><g id="minder_node24"><g id="node_expander21" style="cursor: pointer;" display="none"><path id="kity_path_566" fill="white" stroke="gray" d="M1356.5,963.5A6,6,0,1,1,1344.5,963.5A6,6,0,1,1,1356.5,963.5"></path><path id="kity_path_567" fill="none" stroke="gray"></path></g><path id="node_outline22" fill="none" stroke="none" d="M1361.5,947.5h87a5,5,0,0,1,5,5v22a5,5,0,0,1,-5,5h-87a5,5,0,0,1,-5,-5v-22a5,5,0,0,1,5,-5z"></path><g id="node_text22" fill="black"><text id="kity_text_155" text-rendering="inherit" font-size="12" dy=".8em" y="957.5" x="1366.5">文件操作</text></g><a id="kity_a_403" xlink:href="https://wiki.swoole.com/#/runtime?id=swoole_hook_file" target="_blank" xlink:title="https://wiki.swoole.com/#/runtime?id=swoole_hook_file" style="cursor: pointer;"><path id="kity_path_405" fill="rgba(255, 255, 255, 0)" stroke="none" d="M1423.5,952.5h16a4,4,0,0,1,4,4v14a4,4,0,0,1,-4,4h-16a4,4,0,0,1,-4,-4v-14a4,4,0,0,1,4,-4z"></path><path id="kity_path_404" fill="#666" stroke="none" d="M1438.114,968.724h-1.278c-1.668,0,-3.07,-1.07,-3.599,-2.556h4.877c0.707,0,1.278,-0.571,1.278,-1.278V962.334c0,-0.707,-0.571,-1.278,-1.278,-1.278h-4.877C1433.766,959.571,1435.168,958.5,1436.836,958.5h1.278c2.116,0,3.834,1.716,3.834,3.834V964.89C1441.948,967.008,1440.23,968.724,1438.114,968.724zM1426.612,963.612c0,-0.707,0.573,-1.278,1.278,-1.278h7.668c0.707,0,1.278,0.571,1.278,1.278S1436.265,964.89,1435.558,964.89H1427.89C1427.185,964.89,1426.612,964.319,1426.612,963.612zM1424.056,962.334V964.89c0,0.707,0.573,1.278,1.278,1.278h4.877c-0.528,1.486,-1.932,2.556,-3.599,2.556H1425.334C1423.216,968.724,1421.5,967.008,1421.5,964.89V962.334C1421.5,960.216,1423.216,958.5,1425.334,958.5h1.278c1.667,0,3.071,1.071,3.599,2.556H1425.334C1424.629,961.056,1424.056,961.627,1424.056,962.334z"></path></a></g><g id="minder_node25"><g id="node_expander22" style="cursor: pointer;" display="none"><path id="kity_path_569" fill="white" stroke="gray" d="M1356.5,1025.5A6,6,0,1,1,1344.5,1025.5A6,6,0,1,1,1356.5,1025.5"></path><path id="kity_path_570" fill="none" stroke="gray"></path></g><path id="node_outline23" fill="none" stroke="none" d="M1361.5,1009.5h119a5,5,0,0,1,5,5v22a5,5,0,0,1,-5,5h-119a5,5,0,0,1,-5,-5v-22a5,5,0,0,1,5,-5z"></path><g id="node_text23" fill="black"><text id="kity_text_157" text-rendering="inherit" font-size="12" dy=".8em" y="1019.5" x="1366.5">stream_select</text></g><a id="kity_a_406" xlink:href="https://wiki.swoole.com/#/runtime?id=swoole_hook_stream_function" target="_blank" xlink:title="https://wiki.swoole.com/#/runtime?id=swoole_hook_stream_function" style="cursor: pointer;"><path id="kity_path_408" fill="rgba(255, 255, 255, 0)" stroke="none" d="M1455.5,1014.5h16a4,4,0,0,1,4,4v14a4,4,0,0,1,-4,4h-16a4,4,0,0,1,-4,-4v-14a4,4,0,0,1,4,-4z"></path><path id="kity_path_407" fill="#666" stroke="none" d="M1470.114,1030.724h-1.278c-1.668,0,-3.07,-1.07,-3.599,-2.556h4.877c0.707,0,1.278,-0.571,1.278,-1.278V1024.334c0,-0.707,-0.571,-1.278,-1.278,-1.278h-4.877C1465.766,1021.571,1467.168,1020.5,1468.836,1020.5h1.278c2.116,0,3.834,1.716,3.834,3.834V1026.89C1473.948,1029.008,1472.23,1030.724,1470.114,1030.724zM1458.612,1025.612c0,-0.707,0.573,-1.278,1.278,-1.278h7.668c0.707,0,1.278,0.571,1.278,1.278S1468.265,1026.89,1467.558,1026.89H1459.89C1459.185,1026.89,1458.612,1026.319,1458.612,1025.612zM1456.056,1024.334V1026.89c0,0.707,0.573,1.278,1.278,1.278h4.877c-0.528,1.486,-1.932,2.556,-3.599,2.556H1457.334C1455.216,1030.724,1453.5,1029.008,1453.5,1026.89V1024.334C1453.5,1022.216,1455.216,1020.5,1457.334,1020.5h1.278c1.667,0,3.071,1.071,3.599,2.556H1457.334C1456.629,1023.056,1456.056,1023.627,1456.056,1024.334z"></path></a></g><g id="minder_node26"><g id="node_expander23" style="cursor: pointer;" display="none"><path id="kity_path_572" fill="white" stroke="gray" d="M1356.5,1087.5A6,6,0,1,1,1344.5,1087.5A6,6,0,1,1,1356.5,1087.5"></path><path id="kity_path_573" fill="none" stroke="gray"></path></g><path id="node_outline24" fill="none" stroke="none" d="M1361.5,1071.5h69a5,5,0,0,1,5,5v22a5,5,0,0,1,-5,5h-69a5,5,0,0,1,-5,-5v-22a5,5,0,0,1,5,-5z"></path><g id="node_text24" fill="black"><text id="kity_text_159" text-rendering="inherit" font-size="12" dy=".8em" y="1081.5" x="1366.5">CURL</text></g><a id="kity_a_409" xlink:href="https://wiki.swoole.com/#/runtime?id=swoole_hook_curl" target="_blank" xlink:title="https://wiki.swoole.com/#/runtime?id=swoole_hook_curl" style="cursor: pointer;"><path id="kity_path_411" fill="rgba(255, 255, 255, 0)" stroke="none" d="M1405.5,1076.5h16a4,4,0,0,1,4,4v14a4,4,0,0,1,-4,4h-16a4,4,0,0,1,-4,-4v-14a4,4,0,0,1,4,-4z"></path><path id="kity_path_410" fill="#666" stroke="none" d="M1420.114,1092.724h-1.278c-1.668,0,-3.07,-1.07,-3.599,-2.556h4.877c0.707,0,1.278,-0.571,1.278,-1.278V1086.334c0,-0.707,-0.571,-1.278,-1.278,-1.278h-4.877C1415.766,1083.571,1417.168,1082.5,1418.836,1082.5h1.278c2.116,0,3.834,1.716,3.834,3.834V1088.89C1423.948,1091.008,1422.23,1092.724,1420.114,1092.724zM1408.612,1087.612c0,-0.707,0.573,-1.278,1.278,-1.278h7.668c0.707,0,1.278,0.571,1.278,1.278S1418.265,1088.89,1417.558,1088.89H1409.89C1409.185,1088.89,1408.612,1088.319,1408.612,1087.612zM1406.056,1086.334V1088.89c0,0.707,0.573,1.278,1.278,1.278h4.877c-0.528,1.486,-1.932,2.556,-3.599,2.556H1407.334C1405.216,1092.724,1403.5,1091.008,1403.5,1088.89V1086.334C1403.5,1084.216,1405.216,1082.5,1407.334,1082.5h1.278c1.667,0,3.071,1.071,3.599,2.556H1407.334C1406.629,1085.056,1406.056,1085.627,1406.056,1086.334z"></path></a></g><g id="minder_node27"><g id="node_expander24" style="cursor: pointer;" display="none"><path id="kity_path_575" fill="white" stroke="gray" d="M1356.5,1149.5A6,6,0,1,1,1344.5,1149.5A6,6,0,1,1,1356.5,1149.5"></path><path id="kity_path_576" fill="none" stroke="gray"></path></g><path id="node_outline25" fill="none" stroke="none" d="M1361.5,1133.5h327a5,5,0,0,1,5,5v22a5,5,0,0,1,-5,5h-327a5,5,0,0,1,-5,-5v-22a5,5,0,0,1,5,-5z"></path><g id="node_text25" fill="black"><text id="kity_text_161" text-rendering="inherit" font-size="12" dy=".8em" y="1143.5" x="1366.5">阻塞函数的Hook(sleep，exec，gethostbyname等)</text></g><a id="kity_a_412" xlink:href="https://wiki.swoole.com/#/runtime?id=swoole_hook_blocking_function" target="_blank" xlink:title="https://wiki.swoole.com/#/runtime?id=swoole_hook_blocking_function" style="cursor: pointer;"><path id="kity_path_414" fill="rgba(255, 255, 255, 0)" stroke="none" d="M1663.5,1138.5h16a4,4,0,0,1,4,4v14a4,4,0,0,1,-4,4h-16a4,4,0,0,1,-4,-4v-14a4,4,0,0,1,4,-4z"></path><path id="kity_path_413" fill="#666" stroke="none" d="M1678.114,1154.724h-1.278c-1.668,0,-3.07,-1.07,-3.599,-2.556h4.877c0.707,0,1.278,-0.571,1.278,-1.278V1148.334c0,-0.707,-0.571,-1.278,-1.278,-1.278h-4.877C1673.766,1145.571,1675.168,1144.5,1676.836,1144.5h1.278c2.116,0,3.834,1.716,3.834,3.834V1150.89C1681.948,1153.008,1680.23,1154.724,1678.114,1154.724zM1666.612,1149.612c0,-0.707,0.573,-1.278,1.278,-1.278h7.668c0.707,0,1.278,0.571,1.278,1.278S1676.265,1150.89,1675.558,1150.89H1667.89C1667.185,1150.89,1666.612,1150.319,1666.612,1149.612zM1664.056,1148.334V1150.89c0,0.707,0.573,1.278,1.278,1.278h4.877c-0.528,1.486,-1.932,2.556,-3.599,2.556H1665.334C1663.216,1154.724,1661.5,1153.008,1661.5,1150.89V1148.334C1661.5,1146.216,1663.216,1144.5,1665.334,1144.5h1.278c1.667,0,3.071,1.071,3.599,2.556H1665.334C1664.629,1147.056,1664.056,1147.627,1664.056,1148.334z"></path></a></g><g id="minder_node28"><g id="node_expander33" style="cursor: pointer;"><path id="kity_path_602" fill="white" stroke="gray" d="M530.5,468.5A6,6,0,1,1,518.5,468.5A6,6,0,1,1,530.5,468.5"></path><path id="kity_path_603" fill="none" stroke="gray" d="M520,468.5L529,468.5"></path></g><path id="node_outline34" fill="rgb(238, 243, 246)" stroke="rgb(115, 161, 191)" d="M423.5,451.5h91a3,3,0,0,1,3,3v28a3,3,0,0,1,-3,3h-91a3,3,0,0,1,-3,-3v-28a3,3,0,0,1,3,-3z" stroke-width="1"></path><g id="node_text34" fill="black"><text id="kity_text_179" text-rendering="inherit" font-size="14" dy=".8em" y="461.5" x="440.5">协程</text></g><a id="kity_a_439" xlink:href="https://wiki.swoole.com/#/coroutine" target="_blank" xlink:title="https://wiki.swoole.com/#/coroutine" style="cursor: pointer;"><path id="kity_path_441" fill="rgba(255, 255, 255, 0)" stroke="none" d="M477.5,457.5h16a4,4,0,0,1,4,4v14a4,4,0,0,1,-4,4h-16a4,4,0,0,1,-4,-4v-14a4,4,0,0,1,4,-4z"></path><path id="kity_path_440" fill="#666" stroke="none" d="M492.114,473.724h-1.278c-1.668,0,-3.07,-1.07,-3.599,-2.556h4.877c0.707,0,1.278,-0.571,1.278,-1.278V467.334c0,-0.707,-0.571,-1.278,-1.278,-1.278h-4.877C487.766,464.571,489.168,463.5,490.836,463.5h1.278c2.116,0,3.834,1.716,3.834,3.834V469.89C495.948,472.008,494.23,473.724,492.114,473.724zM480.612,468.612c0,-0.707,0.573,-1.278,1.278,-1.278h7.668c0.707,0,1.278,0.571,1.278,1.278S490.265,469.89,489.558,469.89H481.89C481.185,469.89,480.612,469.319,480.612,468.612zM478.056,467.334V469.89c0,0.707,0.573,1.278,1.278,1.278h4.877c-0.528,1.486,-1.932,2.556,-3.599,2.556H479.334C477.216,473.724,475.5,472.008,475.5,469.89V467.334C475.5,465.216,477.216,463.5,479.334,463.5h1.278c1.667,0,3.071,1.071,3.599,2.556H479.334C478.629,466.056,478.056,466.627,478.056,467.334z"></path></a></g><g id="minder_node29"><g id="node_expander27" style="cursor: pointer;" display="none"><path id="kity_path_584" fill="white" stroke="gray" d="M392.5,313.5A6,6,0,1,1,380.5,313.5A6,6,0,1,1,392.5,313.5"></path><path id="kity_path_585" fill="none" stroke="gray"></path></g><path id="node_outline28" fill="none" stroke="none" d="M268.5,297.5h107a5,5,0,0,1,5,5v22a5,5,0,0,1,-5,5h-107a5,5,0,0,1,-5,-5v-22a5,5,0,0,1,5,-5z"></path><g id="node_text28" fill="black"><text id="kity_text_167" text-rendering="inherit" font-size="12" dy=".8em" y="307.5" x="298.5">协程API</text></g><g id="node_priority18"><path id="kity_path_285" fill="#840023" stroke="none" d="M274,317c0,3.866,3.134,7,7,7h6c3.866,0,7,-3.134,7,-7V311H274V317z"></path><path id="kity_path_286" fill="#FF1200" stroke="none" d="M294,314c0,3.866,-3.134,7,-7,7H281c-3.866,0,-7,-3.134,-7,-7V311c0,-3.866,3.134,-7,7,-7h6c3.866,0,7,3.134,7,7V314z" opacity="0.8"></path><text id="kity_text_287" text-rendering="geometricPrecision" x="283" y="313.5" text-anchor="middle" font-style="italic" font-size="12" fill="white" dy="4">1</text></g><a id="kity_a_421" xlink:href="https://wiki.swoole.com/#/coroutine/coroutine" target="_blank" xlink:title="https://wiki.swoole.com/#/coroutine/coroutine" style="cursor: pointer;"><path id="kity_path_423" fill="rgba(255, 255, 255, 0)" stroke="none" d="M350.5,302.5h16a4,4,0,0,1,4,4v14a4,4,0,0,1,-4,4h-16a4,4,0,0,1,-4,-4v-14a4,4,0,0,1,4,-4z"></path><path id="kity_path_422" fill="#666" stroke="none" d="M365.114,318.724h-1.278c-1.668,0,-3.07,-1.07,-3.599,-2.556h4.877c0.707,0,1.278,-0.571,1.278,-1.278V312.334c0,-0.707,-0.571,-1.278,-1.278,-1.278h-4.877C360.766,309.571,362.168,308.5,363.836,308.5h1.278c2.116,0,3.834,1.716,3.834,3.834V314.89C368.948,317.008,367.23,318.724,365.114,318.724zM353.612,313.612c0,-0.707,0.573,-1.278,1.278,-1.278h7.668c0.707,0,1.278,0.571,1.278,1.278S363.265,314.89,362.558,314.89H354.89C354.185,314.89,353.612,314.319,353.612,313.612zM351.056,312.334V314.89c0,0.707,0.573,1.278,1.278,1.278h4.877c-0.528,1.486,-1.932,2.556,-3.599,2.556H352.334C350.216,318.724,348.5,317.008,348.5,314.89V312.334C348.5,310.216,350.216,308.5,352.334,308.5h1.278c1.667,0,3.071,1.071,3.599,2.556H352.334C351.629,311.056,351.056,311.627,351.056,312.334z"></path></a></g><g id="minder_node30"><g id="node_expander28" style="cursor: pointer;" display="none"><path id="kity_path_587" fill="white" stroke="gray" d="M392.5,375.5A6,6,0,1,1,380.5,375.5A6,6,0,1,1,392.5,375.5"></path><path id="kity_path_588" fill="none" stroke="gray"></path></g><path id="node_outline29" fill="none" stroke="none" d="M251.5,359.5h124a5,5,0,0,1,5,5v22a5,5,0,0,1,-5,5h-124a5,5,0,0,1,-5,-5v-22a5,5,0,0,1,5,-5z"></path><g id="node_text29" fill="black"><text id="kity_text_169" text-rendering="inherit" font-size="12" dy=".8em" y="369.5" x="281.5">内置连接池</text></g><g id="node_priority19"><path id="kity_path_290" fill="#01467F" stroke="none" d="M257,379c0,3.866,3.134,7,7,7h6c3.866,0,7,-3.134,7,-7V373H257V379z"></path><path id="kity_path_291" fill="#0074FF" stroke="none" d="M277,376c0,3.866,-3.134,7,-7,7H264c-3.866,0,-7,-3.134,-7,-7V373c0,-3.866,3.134,-7,7,-7h6c3.866,0,7,3.134,7,7V376z" opacity="0.8"></path><text id="kity_text_292" text-rendering="geometricPrecision" x="266" y="375.5" text-anchor="middle" font-style="italic" font-size="12" fill="white" dy="4">2</text></g><a id="kity_a_424" xlink:href="https://wiki.swoole.com/#/coroutine/conn_pool" target="_blank" xlink:title="https://wiki.swoole.com/#/coroutine/conn_pool" style="cursor: pointer;"><path id="kity_path_426" fill="rgba(255, 255, 255, 0)" stroke="none" d="M350.5,364.5h16a4,4,0,0,1,4,4v14a4,4,0,0,1,-4,4h-16a4,4,0,0,1,-4,-4v-14a4,4,0,0,1,4,-4z"></path><path id="kity_path_425" fill="#666" stroke="none" d="M365.114,380.724h-1.278c-1.668,0,-3.07,-1.07,-3.599,-2.556h4.877c0.707,0,1.278,-0.571,1.278,-1.278V374.334c0,-0.707,-0.571,-1.278,-1.278,-1.278h-4.877C360.766,371.571,362.168,370.5,363.836,370.5h1.278c2.116,0,3.834,1.716,3.834,3.834V376.89C368.948,379.008,367.23,380.724,365.114,380.724zM353.612,375.612c0,-0.707,0.573,-1.278,1.278,-1.278h7.668c0.707,0,1.278,0.571,1.278,1.278S363.265,376.89,362.558,376.89H354.89C354.185,376.89,353.612,376.319,353.612,375.612zM351.056,374.334V376.89c0,0.707,0.573,1.278,1.278,1.278h4.877c-0.528,1.486,-1.932,2.556,-3.599,2.556H352.334C350.216,380.724,348.5,379.008,348.5,376.89V374.334C348.5,372.216,350.216,370.5,352.334,370.5h1.278c1.667,0,3.071,1.071,3.599,2.556H352.334C351.629,373.056,351.056,373.627,351.056,374.334z"></path></a></g><g id="minder_node31"><g id="node_expander29" style="cursor: pointer;" display="none"><path id="kity_path_590" fill="white" stroke="gray" d="M392.5,437.5A6,6,0,1,1,380.5,437.5A6,6,0,1,1,392.5,437.5"></path><path id="kity_path_591" fill="none" stroke="gray"></path></g><path id="node_outline30" fill="none" stroke="none" d="M168.5,421.5h207a5,5,0,0,1,5,5v22a5,5,0,0,1,-5,5h-207a5,5,0,0,1,-5,-5v-22a5,5,0,0,1,5,-5z"></path><g id="node_text30" fill="black"><text id="kity_text_171" text-rendering="inherit" font-size="12" dy=".8em" y="431.5" x="198.5">Channel(用于协程间通讯)</text></g><g id="node_priority20"><path id="kity_path_295" fill="#006300" stroke="none" d="M174,441c0,3.866,3.134,7,7,7h6c3.866,0,7,-3.134,7,-7V435H174V441z"></path><path id="kity_path_296" fill="#00AF00" stroke="none" d="M194,438c0,3.866,-3.134,7,-7,7H181c-3.866,0,-7,-3.134,-7,-7V435c0,-3.866,3.134,-7,7,-7h6c3.866,0,7,3.134,7,7V438z" opacity="0.8"></path><text id="kity_text_297" text-rendering="geometricPrecision" x="183" y="437.5" text-anchor="middle" font-style="italic" font-size="12" fill="white" dy="4">3</text></g><a id="kity_a_427" xlink:href="https://wiki.swoole.com/#/coroutine/channel" target="_blank" xlink:title="https://wiki.swoole.com/#/coroutine/channel" style="cursor: pointer;"><path id="kity_path_429" fill="rgba(255, 255, 255, 0)" stroke="none" d="M350.5,426.5h16a4,4,0,0,1,4,4v14a4,4,0,0,1,-4,4h-16a4,4,0,0,1,-4,-4v-14a4,4,0,0,1,4,-4z"></path><path id="kity_path_428" fill="#666" stroke="none" d="M365.114,442.724h-1.278c-1.668,0,-3.07,-1.07,-3.599,-2.556h4.877c0.707,0,1.278,-0.571,1.278,-1.278V436.334c0,-0.707,-0.571,-1.278,-1.278,-1.278h-4.877C360.766,433.571,362.168,432.5,363.836,432.5h1.278c2.116,0,3.834,1.716,3.834,3.834V438.89C368.948,441.008,367.23,442.724,365.114,442.724zM353.612,437.612c0,-0.707,0.573,-1.278,1.278,-1.278h7.668c0.707,0,1.278,0.571,1.278,1.278S363.265,438.89,362.558,438.89H354.89C354.185,438.89,353.612,438.319,353.612,437.612zM351.056,436.334V438.89c0,0.707,0.573,1.278,1.278,1.278h4.877c-0.528,1.486,-1.932,2.556,-3.599,2.556H352.334C350.216,442.724,348.5,441.008,348.5,438.89V436.334C348.5,434.216,350.216,432.5,352.334,432.5h1.278c1.667,0,3.071,1.071,3.599,2.556H352.334C351.629,435.056,351.056,435.627,351.056,436.334z"></path></a></g><g id="minder_node32"><g id="node_expander30" style="cursor: pointer;" display="none"><path id="kity_path_593" fill="white" stroke="gray" d="M392.5,499.5A6,6,0,1,1,380.5,499.5A6,6,0,1,1,392.5,499.5"></path><path id="kity_path_594" fill="none" stroke="gray"></path></g><path id="node_outline31" fill="none" stroke="none" d="M247.5,483.5h128a5,5,0,0,1,5,5v22a5,5,0,0,1,-5,5h-128a5,5,0,0,1,-5,-5v-22a5,5,0,0,1,5,-5z"></path><g id="node_text31" fill="black"><text id="kity_text_173" text-rendering="inherit" font-size="12" dy=".8em" y="493.5" x="277.5">WaitGroup</text></g><g id="node_priority21"><path id="kity_path_300" fill="#B25000" stroke="none" d="M253,503c0,3.866,3.134,7,7,7h6c3.866,0,7,-3.134,7,-7V497H253V503z"></path><path id="kity_path_301" fill="#FF962E" stroke="none" d="M273,500c0,3.866,-3.134,7,-7,7H260c-3.866,0,-7,-3.134,-7,-7V497c0,-3.866,3.134,-7,7,-7h6c3.866,0,7,3.134,7,7V500z" opacity="0.8"></path><text id="kity_text_302" text-rendering="geometricPrecision" x="262" y="499.5" text-anchor="middle" font-style="italic" font-size="12" fill="white" dy="4">4</text></g><a id="kity_a_430" xlink:href="https://wiki.swoole.com/#/coroutine/wait_group" target="_blank" xlink:title="https://wiki.swoole.com/#/coroutine/wait_group" style="cursor: pointer;"><path id="kity_path_432" fill="rgba(255, 255, 255, 0)" stroke="none" d="M350.5,488.5h16a4,4,0,0,1,4,4v14a4,4,0,0,1,-4,4h-16a4,4,0,0,1,-4,-4v-14a4,4,0,0,1,4,-4z"></path><path id="kity_path_431" fill="#666" stroke="none" d="M365.114,504.724h-1.278c-1.668,0,-3.07,-1.07,-3.599,-2.556h4.877c0.707,0,1.278,-0.571,1.278,-1.278V498.334c0,-0.707,-0.571,-1.278,-1.278,-1.278h-4.877C360.766,495.571,362.168,494.5,363.836,494.5h1.278c2.116,0,3.834,1.716,3.834,3.834V500.89C368.948,503.008,367.23,504.724,365.114,504.724zM353.612,499.612c0,-0.707,0.573,-1.278,1.278,-1.278h7.668c0.707,0,1.278,0.571,1.278,1.278S363.265,500.89,362.558,500.89H354.89C354.185,500.89,353.612,500.319,353.612,499.612zM351.056,498.334V500.89c0,0.707,0.573,1.278,1.278,1.278h4.877c-0.528,1.486,-1.932,2.556,-3.599,2.556H352.334C350.216,504.724,348.5,503.008,348.5,500.89V498.334C348.5,496.216,350.216,494.5,352.334,494.5h1.278c1.667,0,3.071,1.071,3.599,2.556H352.334C351.629,497.056,351.056,497.627,351.056,498.334z"></path></a></g><g id="minder_node33"><g id="node_expander31" style="cursor: pointer;" display="none"><path id="kity_path_596" fill="white" stroke="gray" d="M392.5,561.5A6,6,0,1,1,380.5,561.5A6,6,0,1,1,392.5,561.5"></path><path id="kity_path_597" fill="none" stroke="gray"></path></g><path id="node_outline32" fill="none" stroke="none" d="M263.5,545.5h112a5,5,0,0,1,5,5v22a5,5,0,0,1,-5,5h-112a5,5,0,0,1,-5,-5v-22a5,5,0,0,1,5,-5z"></path><g id="node_text32" fill="black"><text id="kity_text_175" text-rendering="inherit" font-size="12" dy=".8em" y="555.5" x="293.5">协程并发</text></g><g id="node_priority22"><path id="kity_path_305" fill="#4720C4" stroke="none" d="M269,565c0,3.866,3.134,7,7,7h6c3.866,0,7,-3.134,7,-7V559H269V565z"></path><path id="kity_path_306" fill="#A464FF" stroke="none" d="M289,562c0,3.866,-3.134,7,-7,7H276c-3.866,0,-7,-3.134,-7,-7V559c0,-3.866,3.134,-7,7,-7h6c3.866,0,7,3.134,7,7V562z" opacity="0.8"></path><text id="kity_text_307" text-rendering="geometricPrecision" x="278" y="561.5" text-anchor="middle" font-style="italic" font-size="12" fill="white" dy="4">5</text></g><a id="kity_a_433" xlink:href="https://wiki.swoole.com/#/coroutine/multi_call" target="_blank" xlink:title="https://wiki.swoole.com/#/coroutine/multi_call" style="cursor: pointer;"><path id="kity_path_435" fill="rgba(255, 255, 255, 0)" stroke="none" d="M350.5,550.5h16a4,4,0,0,1,4,4v14a4,4,0,0,1,-4,4h-16a4,4,0,0,1,-4,-4v-14a4,4,0,0,1,4,-4z"></path><path id="kity_path_434" fill="#666" stroke="none" d="M365.114,566.724h-1.278c-1.668,0,-3.07,-1.07,-3.599,-2.556h4.877c0.707,0,1.278,-0.571,1.278,-1.278V560.334c0,-0.707,-0.571,-1.278,-1.278,-1.278h-4.877C360.766,557.571,362.168,556.5,363.836,556.5h1.278c2.116,0,3.834,1.716,3.834,3.834V562.89C368.948,565.008,367.23,566.724,365.114,566.724zM353.612,561.612c0,-0.707,0.573,-1.278,1.278,-1.278h7.668c0.707,0,1.278,0.571,1.278,1.278S363.265,562.89,362.558,562.89H354.89C354.185,562.89,353.612,562.319,353.612,561.612zM351.056,560.334V562.89c0,0.707,0.573,1.278,1.278,1.278h4.877c-0.528,1.486,-1.932,2.556,-3.599,2.556H352.334C350.216,566.724,348.5,565.008,348.5,562.89V560.334C348.5,558.216,350.216,556.5,352.334,556.5h1.278c1.667,0,3.071,1.071,3.599,2.556H352.334C351.629,559.056,351.056,559.627,351.056,560.334z"></path></a></g><g id="minder_node34"><g id="node_expander32" style="cursor: pointer;" display="none"><path id="kity_path_599" fill="white" stroke="gray" d="M392.5,623.5A6,6,0,1,1,380.5,623.5A6,6,0,1,1,392.5,623.5"></path><path id="kity_path_600" fill="none" stroke="gray"></path></g><path id="node_outline33" fill="none" stroke="none" d="M263.5,607.5h112a5,5,0,0,1,5,5v22a5,5,0,0,1,-5,5h-112a5,5,0,0,1,-5,-5v-22a5,5,0,0,1,5,-5z"></path><g id="node_text33" fill="black"><text id="kity_text_177" text-rendering="inherit" font-size="12" dy=".8em" y="617.5" x="293.5">调试协程</text></g><g id="node_priority23"><path id="kity_path_310" fill="#515151" stroke="none" d="M269,627c0,3.866,3.134,7,7,7h6c3.866,0,7,-3.134,7,-7V621H269V627z"></path><path id="kity_path_311" fill="#A3A3A3" stroke="none" d="M289,624c0,3.866,-3.134,7,-7,7H276c-3.866,0,-7,-3.134,-7,-7V621c0,-3.866,3.134,-7,7,-7h6c3.866,0,7,3.134,7,7V624z" opacity="0.8"></path><text id="kity_text_312" text-rendering="geometricPrecision" x="278" y="623.5" text-anchor="middle" font-style="italic" font-size="12" fill="white" dy="4">6</text></g><a id="kity_a_436" xlink:href="https://wiki.swoole.com/#/coroutine/gdb" target="_blank" xlink:title="https://wiki.swoole.com/#/coroutine/gdb" style="cursor: pointer;"><path id="kity_path_438" fill="rgba(255, 255, 255, 0)" stroke="none" d="M350.5,612.5h16a4,4,0,0,1,4,4v14a4,4,0,0,1,-4,4h-16a4,4,0,0,1,-4,-4v-14a4,4,0,0,1,4,-4z"></path><path id="kity_path_437" fill="#666" stroke="none" d="M365.114,628.724h-1.278c-1.668,0,-3.07,-1.07,-3.599,-2.556h4.877c0.707,0,1.278,-0.571,1.278,-1.278V622.334c0,-0.707,-0.571,-1.278,-1.278,-1.278h-4.877C360.766,619.571,362.168,618.5,363.836,618.5h1.278c2.116,0,3.834,1.716,3.834,3.834V624.89C368.948,627.008,367.23,628.724,365.114,628.724zM353.612,623.612c0,-0.707,0.573,-1.278,1.278,-1.278h7.668c0.707,0,1.278,0.571,1.278,1.278S363.265,624.89,362.558,624.89H354.89C354.185,624.89,353.612,624.319,353.612,623.612zM351.056,622.334V624.89c0,0.707,0.573,1.278,1.278,1.278h4.877c-0.528,1.486,-1.932,2.556,-3.599,2.556H352.334C350.216,628.724,348.5,627.008,348.5,624.89V622.334C348.5,620.216,350.216,618.5,352.334,618.5h1.278c1.667,0,3.071,1.071,3.599,2.556H352.334C351.629,621.056,351.056,621.627,351.056,622.334z"></path></a></g><g id="minder_node35"><g id="node_expander42" style="cursor: pointer;"><path id="kity_path_629" fill="white" stroke="gray" d="M572.5,900.5A6,6,0,1,1,560.5,900.5A6,6,0,1,1,572.5,900.5"></path><path id="kity_path_630" fill="none" stroke="gray" d="M562,900.5L571,900.5"></path></g><path id="node_outline43" fill="rgb(238, 243, 246)" stroke="rgb(115, 161, 191)" d="M452.5,887.5h104a3,3,0,0,1,3,3v20a3,3,0,0,1,-3,3h-104a3,3,0,0,1,-3,-3v-20a3,3,0,0,1,3,-3z" stroke-width="1"></path><g id="node_text43" fill="black"><text id="kity_text_197" text-rendering="inherit" font-size="14" dy=".8em" y="893.5" x="469.5">其他工具类</text></g></g><g id="minder_node36"><g id="node_expander36" style="cursor: pointer;"><path id="kity_path_611" fill="white" stroke="gray" d="M421.5,729.5A6,6,0,1,1,409.5,729.5A6,6,0,1,1,421.5,729.5"></path><path id="kity_path_612" fill="none" stroke="gray" d="M411,729.5L420,729.5"></path></g><path id="node_outline37" fill="none" stroke="none" d="M321.5,714.5h83a5,5,0,0,1,5,5v20a5,5,0,0,1,-5,5h-83a5,5,0,0,1,-5,-5v-20a5,5,0,0,1,5,-5z"></path><g id="node_text37" fill="black"><text id="kity_text_185" text-rendering="inherit" font-size="12" dy=".8em" y="723.5" x="351.5">进程管理</text></g><g id="node_priority24"><path id="kity_path_315" fill="#840023" stroke="none" d="M327,733c0,3.866,3.134,7,7,7h6c3.866,0,7,-3.134,7,-7V727H327V733z"></path><path id="kity_path_316" fill="#FF1200" stroke="none" d="M347,730c0,3.866,-3.134,7,-7,7H334c-3.866,0,-7,-3.134,-7,-7V727c0,-3.866,3.134,-7,7,-7h6c3.866,0,7,3.134,7,7V730z" opacity="0.8"></path><text id="kity_text_317" text-rendering="geometricPrecision" x="336" y="729.5" text-anchor="middle" font-style="italic" font-size="12" fill="white" dy="4">1</text></g></g><g id="minder_node37"><g id="node_expander34" style="cursor: pointer;" display="none"><path id="kity_path_605" fill="white" stroke="gray" d="M288.5,698.5A6,6,0,1,1,276.5,698.5A6,6,0,1,1,288.5,698.5"></path><path id="kity_path_606" fill="none" stroke="gray"></path></g><path id="node_outline35" fill="none" stroke="none" d="M144.5,682.5h127a5,5,0,0,1,5,5v22a5,5,0,0,1,-5,5h-127a5,5,0,0,1,-5,-5v-22a5,5,0,0,1,5,-5z"></path><g id="node_text35" fill="black"><text id="kity_text_181" text-rendering="inherit" font-size="12" dy=".8em" y="692.5" x="149.5">Process(单进程)</text></g><a id="kity_a_442" xlink:href="https://wiki.swoole.com/#/process" target="_blank" xlink:title="https://wiki.swoole.com/#/process" style="cursor: pointer;"><path id="kity_path_444" fill="rgba(255, 255, 255, 0)" stroke="none" d="M246.5,687.5h16a4,4,0,0,1,4,4v14a4,4,0,0,1,-4,4h-16a4,4,0,0,1,-4,-4v-14a4,4,0,0,1,4,-4z"></path><path id="kity_path_443" fill="#666" stroke="none" d="M261.114,703.724h-1.278c-1.668,0,-3.07,-1.07,-3.599,-2.556h4.877c0.707,0,1.278,-0.571,1.278,-1.278V697.334c0,-0.707,-0.571,-1.278,-1.278,-1.278h-4.877C256.766,694.571,258.168,693.5,259.836,693.5h1.278c2.116,0,3.834,1.716,3.834,3.834V699.89C264.948,702.008,263.23,703.724,261.114,703.724zM249.612,698.612c0,-0.707,0.573,-1.278,1.278,-1.278h7.668c0.707,0,1.278,0.571,1.278,1.278S259.265,699.89,258.558,699.89H250.89C250.185,699.89,249.612,699.319,249.612,698.612zM247.056,697.334V699.89c0,0.707,0.573,1.278,1.278,1.278h4.877c-0.528,1.486,-1.932,2.556,-3.599,2.556H248.334C246.216,703.724,244.5,702.008,244.5,699.89V697.334C244.5,695.216,246.216,693.5,248.334,693.5h1.278c1.667,0,3.071,1.071,3.599,2.556H248.334C247.629,696.056,247.056,696.627,247.056,697.334z"></path></a></g><g id="minder_node38"><g id="node_expander35" style="cursor: pointer;" display="none"><path id="kity_path_608" fill="white" stroke="gray" d="M288.5,760.5A6,6,0,1,1,276.5,760.5A6,6,0,1,1,288.5,760.5"></path><path id="kity_path_609" fill="none" stroke="gray"></path></g><path id="node_outline36" fill="none" stroke="none" d="M111.5,744.5h160a5,5,0,0,1,5,5v22a5,5,0,0,1,-5,5h-160a5,5,0,0,1,-5,-5v-22a5,5,0,0,1,5,-5z"></path><g id="node_text36" fill="black"><text id="kity_text_183" text-rendering="inherit" font-size="12" dy=".8em" y="754.5" x="116.5">Process\Pool(进程池)</text></g><a id="kity_a_445" xlink:href="https://wiki.swoole.com/#/process_pool" target="_blank" xlink:title="https://wiki.swoole.com/#/process_pool" style="cursor: pointer;"><path id="kity_path_447" fill="rgba(255, 255, 255, 0)" stroke="none" d="M246.5,749.5h16a4,4,0,0,1,4,4v14a4,4,0,0,1,-4,4h-16a4,4,0,0,1,-4,-4v-14a4,4,0,0,1,4,-4z"></path><path id="kity_path_446" fill="#666" stroke="none" d="M261.114,765.724h-1.278c-1.668,0,-3.07,-1.07,-3.599,-2.556h4.877c0.707,0,1.278,-0.571,1.278,-1.278V759.334c0,-0.707,-0.571,-1.278,-1.278,-1.278h-4.877C256.766,756.571,258.168,755.5,259.836,755.5h1.278c2.116,0,3.834,1.716,3.834,3.834V761.89C264.948,764.008,263.23,765.724,261.114,765.724zM249.612,760.612c0,-0.707,0.573,-1.278,1.278,-1.278h7.668c0.707,0,1.278,0.571,1.278,1.278S259.265,761.89,258.558,761.89H250.89C250.185,761.89,249.612,761.319,249.612,760.612zM247.056,759.334V761.89c0,0.707,0.573,1.278,1.278,1.278h4.877c-0.528,1.486,-1.932,2.556,-3.599,2.556H248.334C246.216,765.724,244.5,764.008,244.5,761.89V759.334C244.5,757.216,246.216,755.5,248.334,755.5h1.278c1.667,0,3.071,1.071,3.599,2.556H248.334C247.629,758.056,247.056,758.627,247.056,759.334z"></path></a></g><g id="minder_node39"><g id="node_expander37" style="cursor: pointer;" display="none"><path id="kity_path_614" fill="white" stroke="gray" d="M421.5,822.5A6,6,0,1,1,409.5,822.5A6,6,0,1,1,421.5,822.5"></path><path id="kity_path_615" fill="none" stroke="gray"></path></g><path id="node_outline38" fill="none" stroke="none" d="M200.5,806.5h204a5,5,0,0,1,5,5v22a5,5,0,0,1,-5,5h-204a5,5,0,0,1,-5,-5v-22a5,5,0,0,1,5,-5z"></path><g id="node_text38" fill="black"><text id="kity_text_187" text-rendering="inherit" font-size="12" dy=".8em" y="816.5" x="230.5">Event(手动管理Epoll事件)</text></g><g id="node_priority25"><path id="kity_path_320" fill="#01467F" stroke="none" d="M206,826c0,3.866,3.134,7,7,7h6c3.866,0,7,-3.134,7,-7V820H206V826z"></path><path id="kity_path_321" fill="#0074FF" stroke="none" d="M226,823c0,3.866,-3.134,7,-7,7H213c-3.866,0,-7,-3.134,-7,-7V820c0,-3.866,3.134,-7,7,-7h6c3.866,0,7,3.134,7,7V823z" opacity="0.8"></path><text id="kity_text_322" text-rendering="geometricPrecision" x="215" y="822.5" text-anchor="middle" font-style="italic" font-size="12" fill="white" dy="4">2</text></g><a id="kity_a_448" xlink:href="https://wiki.swoole.com/#/event" target="_blank" xlink:title="https://wiki.swoole.com/#/event" style="cursor: pointer;"><path id="kity_path_450" fill="rgba(255, 255, 255, 0)" stroke="none" d="M379.5,811.5h16a4,4,0,0,1,4,4v14a4,4,0,0,1,-4,4h-16a4,4,0,0,1,-4,-4v-14a4,4,0,0,1,4,-4z"></path><path id="kity_path_449" fill="#666" stroke="none" d="M394.114,827.724h-1.278c-1.668,0,-3.07,-1.07,-3.599,-2.556h4.877c0.707,0,1.278,-0.571,1.278,-1.278V821.334c0,-0.707,-0.571,-1.278,-1.278,-1.278h-4.877C389.766,818.571,391.168,817.5,392.836,817.5h1.278c2.116,0,3.834,1.716,3.834,3.834V823.89C397.948,826.008,396.23,827.724,394.114,827.724zM382.612,822.612c0,-0.707,0.573,-1.278,1.278,-1.278h7.668c0.707,0,1.278,0.571,1.278,1.278S392.265,823.89,391.558,823.89H383.89C383.185,823.89,382.612,823.319,382.612,822.612zM380.056,821.334V823.89c0,0.707,0.573,1.278,1.278,1.278h4.877c-0.528,1.486,-1.932,2.556,-3.599,2.556H381.334C379.216,827.724,377.5,826.008,377.5,823.89V821.334C377.5,819.216,379.216,817.5,381.334,817.5h1.278c1.667,0,3.071,1.071,3.599,2.556H381.334C380.629,820.056,380.056,820.627,380.056,821.334z"></path></a></g><g id="minder_node40"><g id="node_expander38" style="cursor: pointer;" display="none"><path id="kity_path_617" fill="white" stroke="gray" d="M421.5,884.5A6,6,0,1,1,409.5,884.5A6,6,0,1,1,421.5,884.5"></path><path id="kity_path_618" fill="none" stroke="gray"></path></g><path id="node_outline39" fill="none" stroke="none" d="M256.5,868.5h148a5,5,0,0,1,5,5v22a5,5,0,0,1,-5,5h-148a5,5,0,0,1,-5,-5v-22a5,5,0,0,1,5,-5z"></path><g id="node_text39" fill="black"><text id="kity_text_189" text-rendering="inherit" font-size="12" dy=".8em" y="878.5" x="286.5">Lock(进程间锁)</text></g><g id="node_priority26"><path id="kity_path_325" fill="#006300" stroke="none" d="M262,888c0,3.866,3.134,7,7,7h6c3.866,0,7,-3.134,7,-7V882H262V888z"></path><path id="kity_path_326" fill="#00AF00" stroke="none" d="M282,885c0,3.866,-3.134,7,-7,7H269c-3.866,0,-7,-3.134,-7,-7V882c0,-3.866,3.134,-7,7,-7h6c3.866,0,7,3.134,7,7V885z" opacity="0.8"></path><text id="kity_text_327" text-rendering="geometricPrecision" x="271" y="884.5" text-anchor="middle" font-style="italic" font-size="12" fill="white" dy="4">3</text></g><a id="kity_a_451" xlink:href="https://wiki.swoole.com/#/memory/lock" target="_blank" xlink:title="https://wiki.swoole.com/#/memory/lock" style="cursor: pointer;"><path id="kity_path_453" fill="rgba(255, 255, 255, 0)" stroke="none" d="M379.5,873.5h16a4,4,0,0,1,4,4v14a4,4,0,0,1,-4,4h-16a4,4,0,0,1,-4,-4v-14a4,4,0,0,1,4,-4z"></path><path id="kity_path_452" fill="#666" stroke="none" d="M394.114,889.724h-1.278c-1.668,0,-3.07,-1.07,-3.599,-2.556h4.877c0.707,0,1.278,-0.571,1.278,-1.278V883.334c0,-0.707,-0.571,-1.278,-1.278,-1.278h-4.877C389.766,880.571,391.168,879.5,392.836,879.5h1.278c2.116,0,3.834,1.716,3.834,3.834V885.89C397.948,888.008,396.23,889.724,394.114,889.724zM382.612,884.612c0,-0.707,0.573,-1.278,1.278,-1.278h7.668c0.707,0,1.278,0.571,1.278,1.278S392.265,885.89,391.558,885.89H383.89C383.185,885.89,382.612,885.319,382.612,884.612zM380.056,883.334V885.89c0,0.707,0.573,1.278,1.278,1.278h4.877c-0.528,1.486,-1.932,2.556,-3.599,2.556H381.334C379.216,889.724,377.5,888.008,377.5,885.89V883.334C377.5,881.216,379.216,879.5,381.334,879.5h1.278c1.667,0,3.071,1.071,3.599,2.556H381.334C380.629,882.056,380.056,882.627,380.056,883.334z"></path></a></g><g id="minder_node41"><g id="node_expander39" style="cursor: pointer;" display="none"><path id="kity_path_620" fill="white" stroke="gray" d="M421.5,946.5A6,6,0,1,1,409.5,946.5A6,6,0,1,1,421.5,946.5"></path><path id="kity_path_621" fill="none" stroke="gray"></path></g><path id="node_outline40" fill="none" stroke="none" d="M205.5,930.5h199a5,5,0,0,1,5,5v22a5,5,0,0,1,-5,5h-199a5,5,0,0,1,-5,-5v-22a5,5,0,0,1,5,-5z"></path><g id="node_text40" fill="black"><text id="kity_text_191" text-rendering="inherit" font-size="12" dy=".8em" y="940.5" x="235.5">Atomic(无锁原子计数器)</text></g><g id="node_priority27"><path id="kity_path_330" fill="#B25000" stroke="none" d="M211,950c0,3.866,3.134,7,7,7h6c3.866,0,7,-3.134,7,-7V944H211V950z"></path><path id="kity_path_331" fill="#FF962E" stroke="none" d="M231,947c0,3.866,-3.134,7,-7,7H218c-3.866,0,-7,-3.134,-7,-7V944c0,-3.866,3.134,-7,7,-7h6c3.866,0,7,3.134,7,7V947z" opacity="0.8"></path><text id="kity_text_332" text-rendering="geometricPrecision" x="220" y="946.5" text-anchor="middle" font-style="italic" font-size="12" fill="white" dy="4">4</text></g><a id="kity_a_454" xlink:href="https://wiki.swoole.com/#/memory/atomic" target="_blank" xlink:title="https://wiki.swoole.com/#/memory/atomic" style="cursor: pointer;"><path id="kity_path_456" fill="rgba(255, 255, 255, 0)" stroke="none" d="M379.5,935.5h16a4,4,0,0,1,4,4v14a4,4,0,0,1,-4,4h-16a4,4,0,0,1,-4,-4v-14a4,4,0,0,1,4,-4z"></path><path id="kity_path_455" fill="#666" stroke="none" d="M394.114,951.724h-1.278c-1.668,0,-3.07,-1.07,-3.599,-2.556h4.877c0.707,0,1.278,-0.571,1.278,-1.278V945.334c0,-0.707,-0.571,-1.278,-1.278,-1.278h-4.877C389.766,942.571,391.168,941.5,392.836,941.5h1.278c2.116,0,3.834,1.716,3.834,3.834V947.89C397.948,950.008,396.23,951.724,394.114,951.724zM382.612,946.612c0,-0.707,0.573,-1.278,1.278,-1.278h7.668c0.707,0,1.278,0.571,1.278,1.278S392.265,947.89,391.558,947.89H383.89C383.185,947.89,382.612,947.319,382.612,946.612zM380.056,945.334V947.89c0,0.707,0.573,1.278,1.278,1.278h4.877c-0.528,1.486,-1.932,2.556,-3.599,2.556H381.334C379.216,951.724,377.5,950.008,377.5,947.89V945.334C377.5,943.216,379.216,941.5,381.334,941.5h1.278c1.667,0,3.071,1.071,3.599,2.556H381.334C380.629,944.056,380.056,944.627,380.056,945.334z"></path></a></g><g id="minder_node42"><g id="node_expander40" style="cursor: pointer;" display="none"><path id="kity_path_623" fill="white" stroke="gray" d="M421.5,1008.5A6,6,0,1,1,409.5,1008.5A6,6,0,1,1,421.5,1008.5"></path><path id="kity_path_624" fill="none" stroke="gray"></path></g><path id="node_outline41" fill="none" stroke="none" d="M215.5,992.5h189a5,5,0,0,1,5,5v22a5,5,0,0,1,-5,5h-189a5,5,0,0,1,-5,-5v-22a5,5,0,0,1,5,-5z"></path><g id="node_text41" fill="black"><text id="kity_text_193" text-rendering="inherit" font-size="12" dy=".8em" y="1002.5" x="245.5">Table(高性能共享内存)</text></g><g id="node_priority28"><path id="kity_path_335" fill="#4720C4" stroke="none" d="M221,1012c0,3.866,3.134,7,7,7h6c3.866,0,7,-3.134,7,-7V1006H221V1012z"></path><path id="kity_path_336" fill="#A464FF" stroke="none" d="M241,1009c0,3.866,-3.134,7,-7,7H228c-3.866,0,-7,-3.134,-7,-7V1006c0,-3.866,3.134,-7,7,-7h6c3.866,0,7,3.134,7,7V1009z" opacity="0.8"></path><text id="kity_text_337" text-rendering="geometricPrecision" x="230" y="1008.5" text-anchor="middle" font-style="italic" font-size="12" fill="white" dy="4">5</text></g><a id="kity_a_457" xlink:href="https://wiki.swoole.com/#/memory/table" target="_blank" xlink:title="https://wiki.swoole.com/#/memory/table" style="cursor: pointer;"><path id="kity_path_459" fill="rgba(255, 255, 255, 0)" stroke="none" d="M379.5,997.5h16a4,4,0,0,1,4,4v14a4,4,0,0,1,-4,4h-16a4,4,0,0,1,-4,-4v-14a4,4,0,0,1,4,-4z"></path><path id="kity_path_458" fill="#666" stroke="none" d="M394.114,1013.724h-1.278c-1.668,0,-3.07,-1.07,-3.599,-2.556h4.877c0.707,0,1.278,-0.571,1.278,-1.278V1007.334c0,-0.707,-0.571,-1.278,-1.278,-1.278h-4.877C389.766,1004.571,391.168,1003.5,392.836,1003.5h1.278c2.116,0,3.834,1.716,3.834,3.834V1009.89C397.948,1012.008,396.23,1013.724,394.114,1013.724zM382.612,1008.612c0,-0.707,0.573,-1.278,1.278,-1.278h7.668c0.707,0,1.278,0.571,1.278,1.278S392.265,1009.89,391.558,1009.89H383.89C383.185,1009.89,382.612,1009.319,382.612,1008.612zM380.056,1007.334V1009.89c0,0.707,0.573,1.278,1.278,1.278h4.877c-0.528,1.486,-1.932,2.556,-3.599,2.556H381.334C379.216,1013.724,377.5,1012.008,377.5,1009.89V1007.334C377.5,1005.216,379.216,1003.5,381.334,1003.5h1.278c1.667,0,3.071,1.071,3.599,2.556H381.334C380.629,1006.056,380.056,1006.627,380.056,1007.334z"></path></a></g><g id="minder_node43"><g id="node_expander41" style="cursor: pointer;" display="none"><path id="kity_path_626" fill="white" stroke="gray" d="M421.5,1070.5A6,6,0,1,1,409.5,1070.5A6,6,0,1,1,421.5,1070.5"></path><path id="kity_path_627" fill="none" stroke="gray"></path></g><path id="node_outline42" fill="none" stroke="none" d="M241.5,1054.5h163a5,5,0,0,1,5,5v22a5,5,0,0,1,-5,5h-163a5,5,0,0,1,-5,-5v-22a5,5,0,0,1,5,-5z"></path><g id="node_text42" fill="black"><text id="kity_text_195" text-rendering="inherit" font-size="12" dy=".8em" y="1064.5" x="271.5">Timer(毫秒定时器)</text></g><g id="node_priority29"><path id="kity_path_340" fill="#515151" stroke="none" d="M247,1074c0,3.866,3.134,7,7,7h6c3.866,0,7,-3.134,7,-7V1068H247V1074z"></path><path id="kity_path_341" fill="#A3A3A3" stroke="none" d="M267,1071c0,3.866,-3.134,7,-7,7H254c-3.866,0,-7,-3.134,-7,-7V1068c0,-3.866,3.134,-7,7,-7h6c3.866,0,7,3.134,7,7V1071z" opacity="0.8"></path><text id="kity_text_342" text-rendering="geometricPrecision" x="256" y="1070.5" text-anchor="middle" font-style="italic" font-size="12" fill="white" dy="4">6</text></g><a id="kity_a_460" xlink:href="https://wiki.swoole.com/#/timer" target="_blank" xlink:title="https://wiki.swoole.com/#/timer" style="cursor: pointer;"><path id="kity_path_462" fill="rgba(255, 255, 255, 0)" stroke="none" d="M379.5,1059.5h16a4,4,0,0,1,4,4v14a4,4,0,0,1,-4,4h-16a4,4,0,0,1,-4,-4v-14a4,4,0,0,1,4,-4z"></path><path id="kity_path_461" fill="#666" stroke="none" d="M394.114,1075.724h-1.278c-1.668,0,-3.07,-1.07,-3.599,-2.556h4.877c0.707,0,1.278,-0.571,1.278,-1.278V1069.334c0,-0.707,-0.571,-1.278,-1.278,-1.278h-4.877C389.766,1066.571,391.168,1065.5,392.836,1065.5h1.278c2.116,0,3.834,1.716,3.834,3.834V1071.89C397.948,1074.008,396.23,1075.724,394.114,1075.724zM382.612,1070.612c0,-0.707,0.573,-1.278,1.278,-1.278h7.668c0.707,0,1.278,0.571,1.278,1.278S392.265,1071.89,391.558,1071.89H383.89C383.185,1071.89,382.612,1071.319,382.612,1070.612zM380.056,1069.334V1071.89c0,0.707,0.573,1.278,1.278,1.278h4.877c-0.528,1.486,-1.932,2.556,-3.599,2.556H381.334C379.216,1075.724,377.5,1074.008,377.5,1071.89V1069.334C377.5,1067.216,379.216,1065.5,381.334,1065.5h1.278c1.667,0,3.071,1.071,3.599,2.556H381.334C380.629,1068.056,380.056,1068.627,380.056,1069.334z"></path></a></g></g></g></svg>