<?xml version="1.0" encoding="UTF-8"?>
<svg width="100px" height="60px" viewBox="0 0 349 120" version="1.1" xmlns="http://www.w3.org/2000/svg" xmlns:xlink="http://www.w3.org/1999/xlink">
    <defs></defs>
    <g id="Page-1" stroke="none" stroke-width="1" fill="none" fill-rule="evenodd">
        <g id="logo" transform="translate(-4.000000, -33.000000)">
            <g id="Group">
                <path d="M53.1558012,72.1759115 L32.6176561,72.1759115 L32.6176561,64.9102865 C32.6176561,61.5196445 32.3550226,59.3601609 31.8297477,58.4317708 C31.3044728,57.5033808 30.4290278,57.0391927 29.2033864,57.0391927 C27.87269,57.0391927 26.8659283,57.6648375 26.1830709,58.9161458 C25.5002136,60.1674542 25.15879,62.0645706 25.15879,64.6075521 C25.15879,67.8770997 25.5439858,70.3393146 26.314389,71.9942708 C27.0497738,73.649227 29.1333329,75.6472539 32.5651288,77.9884115 C42.4052782,84.7293306 48.6034289,90.2592232 51.1597666,94.5782552 C53.7161044,98.8972872 54.9942541,105.860108 54.9942541,115.466927 C54.9942541,122.450035 54.2851436,127.596468 52.8669014,130.90638 C51.4486593,134.216293 48.7085164,136.99133 44.6463907,139.231576 C40.5842649,141.471821 35.8568619,142.591927 30.4640398,142.591927 C24.5459428,142.591927 19.4946252,141.300273 15.3099353,138.716927 C11.1252454,136.133581 8.38510256,132.8439 7.08942452,128.847786 C5.79374648,124.851673 5.14591718,119.180505 5.14591718,111.834115 L5.14591718,105.416146 L25.6840623,105.416146 L25.6840623,117.34388 C25.6840623,121.017076 25.9729592,123.37838 26.5507615,124.427865 C27.1285639,125.477349 28.1528345,126.002083 29.6236042,126.002083 C31.0943739,126.002083 32.1886801,125.336074 32.9065558,124.004036 C33.6244315,122.671999 33.9833639,120.694154 33.9833639,118.070443 C33.9833639,112.298278 33.3005168,108.524228 31.9348021,106.748177 C30.5340691,104.972127 27.0848158,102.005359 21.5869387,97.8477865 C16.0890616,93.6498488 12.4472104,90.6023532 10.6612758,88.7052083 C8.87534125,86.8080634 7.3958392,84.1843918 6.2227253,80.8341146 C5.0496114,77.4838374 4.46306325,73.2052344 4.46306325,67.9981771 C4.46306325,60.490327 5.294736,55.0007986 6.95810646,51.5294271 C8.62147691,48.0580556 11.3090931,45.3435645 15.0210356,43.3858724 C18.732978,41.4281803 23.2152564,40.449349 28.4680052,40.449349 C34.2110106,40.449349 39.1047482,41.5189997 43.1493647,43.6583333 C47.1939813,45.7976669 49.872843,48.4919759 51.1860302,51.7413411 C52.4992174,54.9907064 53.1558012,60.5105079 53.1558012,68.3009115 L53.1558012,72.1759115 Z M145.130973,42.5079427 L135.308382,140.533333 L107.679061,140.533333 C105.157742,125.477268 102.934111,108.362856 101.008103,89.1895833 C100.132645,97.3836347 98.0841041,114.498047 94.8624181,140.533333 L67.3906793,140.533333 L57.5155609,42.5079427 L78.9991961,42.5079427 L81.2578668,76.7169271 L83.5690647,109.714974 C84.3744862,92.6406698 86.4055186,70.2385501 89.6622228,42.5079427 L112.669148,42.5079427 C112.984312,45.3738425 113.789722,56.1510784 115.0854,74.839974 L117.501652,112.076302 C118.727294,88.3821732 120.775835,65.192952 123.647338,42.5079427 L145.130973,42.5079427 Z" id="SW" fill="#000000"></path>
                <path d="M295.686257,38.3746094 L295.686257,116.782812 L309.133227,116.782812 L309.133227,136.4 L273.572295,136.4 L273.572295,38.3746094 L295.686257,38.3746094 Z M314.491004,38.3746094 L351.365116,38.3746094 L351.365116,57.9917969 L336.604966,57.9917969 L336.604966,76.5796875 L350.419626,76.5796875 L350.419626,95.228125 L336.604966,95.228125 L336.604966,116.782812 L352.835878,116.782812 L352.835878,136.4 L314.491004,136.4 L314.491004,38.3746094 Z" id="LE" fill="#000000"></path>
                <path d="M206.171009,110.597771 C206.171009,120.446778 205.969657,127.41969 205.566946,131.516716 C205.164235,135.613742 203.903594,139.357519 201.784986,142.748161 C199.666377,146.138803 196.803672,148.742293 193.196784,150.558708 C189.589897,152.375124 185.387761,153.283318 180.59025,153.283318 C176.037868,153.283318 171.94954,152.425579 168.325143,150.710075 C164.700747,148.994572 161.785515,146.421356 159.57936,142.990349 C157.373206,139.559342 156.060038,135.825656 155.639818,131.789177 C155.219598,127.752699 155.009492,120.688967 155.009492,110.597771 L155.009492,93.8262864 C155.009492,83.9772788 155.210844,77.0043668 155.613555,72.9073411 C156.016265,68.8103154 157.276906,65.0665378 159.395515,61.6758958 C161.514124,58.2852538 164.376829,55.6817643 167.983716,53.8653489 C171.590604,52.0489336 175.79274,51.1407396 180.59025,51.1407396 C185.142633,51.1407396 189.230961,51.9984784 192.855357,53.7139817 C196.479754,55.4294851 199.394986,58.0027016 201.60114,61.4337083 C203.807295,64.864715 205.120462,68.5984017 205.540682,72.6348802 C205.960902,76.6713587 206.171009,83.7350901 206.171009,93.8262864 L206.171009,110.597771 Z M184.057047,78.3868333 C184.057047,73.8256126 183.838186,70.9093006 183.400457,69.6378099 C182.962728,68.3663191 182.061019,67.7305833 180.695305,67.7305833 C179.5397,67.7305833 178.655501,68.2452266 178.04268,69.2745286 C177.429859,70.3038306 177.123453,73.3412352 177.123453,78.3868333 L177.123453,124.160271 C177.123453,129.851706 177.324806,133.363389 177.727517,134.695427 C178.130227,136.027465 179.066953,136.693474 180.537723,136.693474 C182.043511,136.693474 183.006501,135.926555 183.42672,134.392693 C183.84694,132.858831 184.057047,129.205873 184.057047,123.433708 L184.057047,78.3868333 Z" id="O" fill="#008DDF" transform="translate(180.590250, 102.212029) rotate(-15.000000) translate(-180.590250, -102.212029) "></path>
                <path d="M260.53735,91.2447635 C260.53735,101.093771 260.335998,108.066683 259.933287,112.163709 C259.530576,116.260735 258.269936,120.004512 256.151327,123.395154 C254.032718,126.785796 251.170013,129.389286 247.563126,131.205701 C243.956238,133.022116 239.754102,133.93031 234.956592,133.93031 C230.404209,133.93031 226.315881,133.072572 222.691484,131.357068 C219.067088,129.641565 216.151856,127.068348 213.945701,123.637342 C211.739547,120.206335 210.426379,116.472648 210.00616,112.43617 C209.58594,108.399691 209.375833,101.33596 209.375833,91.2447635 L209.375833,74.4732792 C209.375833,64.6242716 209.577185,57.6513595 209.979896,53.5543339 C210.382607,49.4573082 211.643247,45.7135305 213.761856,42.3228885 C215.880465,38.9322466 218.74317,36.328757 222.350057,34.5123417 C225.956945,32.6959263 230.159081,31.7877323 234.956592,31.7877323 C239.508974,31.7877323 243.597302,32.6454711 247.221699,34.3609745 C250.846095,36.0764779 253.761327,38.6496943 255.967482,42.080701 C258.173636,45.5117078 259.486804,49.2453944 259.907024,53.2818729 C260.327244,57.3183514 260.53735,64.3820829 260.53735,74.4732792 L260.53735,91.2447635 Z M238.423388,59.033826 C238.423388,54.4726053 238.204527,51.5562933 237.766798,50.2848026 C237.329069,49.0133119 236.427361,48.377576 235.061646,48.377576 C233.906041,48.377576 233.021842,48.8922193 232.409021,49.9215214 C231.7962,50.9508234 231.489795,53.9882279 231.489795,59.033826 L231.489795,104.807264 C231.489795,110.498698 231.691147,114.010382 232.093858,115.34242 C232.496569,116.674458 233.433295,117.340467 234.904064,117.340467 C236.409852,117.340467 237.372842,116.573547 237.793062,115.039685 C238.213282,113.505824 238.423388,109.852865 238.423388,104.080701 L238.423388,59.033826 Z" id="O" fill="#008DDF" transform="translate(234.956592, 82.859021) rotate(26.000000) translate(-234.956592, -82.859021) "></path>
            </g>
        </g>
    </g>
</svg>